%TF.GenerationSoftware,KiCad,Pcbnew,9.0.7*%
%TF.CreationDate,2026-01-16T20:44:45+01:00*%
%TF.ProjectId,p27_amppower,7032375f-616d-4707-906f-7765722e6b69,rev?*%
%TF.SameCoordinates,Original*%
%TF.FileFunction,Soldermask,Top*%
%TF.FilePolarity,Negative*%
%FSLAX46Y46*%
G04 Gerber Fmt 4.6, Leading zero omitted, Abs format (unit mm)*
G04 Created by KiCad (PCBNEW 9.0.7) date 2026-01-16 20:44:45*
%MOMM*%
%LPD*%
G01*
G04 APERTURE LIST*
G04 Aperture macros list*
%AMRoundRect*
0 Rectangle with rounded corners*
0 $1 Rounding radius*
0 $2 $3 $4 $5 $6 $7 $8 $9 X,Y pos of 4 corners*
0 Add a 4 corners polygon primitive as box body*
4,1,4,$2,$3,$4,$5,$6,$7,$8,$9,$2,$3,0*
0 Add four circle primitives for the rounded corners*
1,1,$1+$1,$2,$3*
1,1,$1+$1,$4,$5*
1,1,$1+$1,$6,$7*
1,1,$1+$1,$8,$9*
0 Add four rect primitives between the rounded corners*
20,1,$1+$1,$2,$3,$4,$5,0*
20,1,$1+$1,$4,$5,$6,$7,0*
20,1,$1+$1,$6,$7,$8,$9,0*
20,1,$1+$1,$8,$9,$2,$3,0*%
G04 Aperture macros list end*
%ADD10C,1.600000*%
%ADD11RoundRect,0.250000X0.550000X-0.550000X0.550000X0.550000X-0.550000X0.550000X-0.550000X-0.550000X0*%
%ADD12R,1.710000X1.800000*%
%ADD13O,1.710000X1.800000*%
%ADD14RoundRect,0.250000X-0.750000X0.750000X-0.750000X-0.750000X0.750000X-0.750000X0.750000X0.750000X0*%
%ADD15C,2.000000*%
%ADD16R,1.050000X1.500000*%
%ADD17O,1.050000X1.500000*%
%ADD18R,1.700000X1.700000*%
%ADD19RoundRect,0.250000X0.550000X0.550000X-0.550000X0.550000X-0.550000X-0.550000X0.550000X-0.550000X0*%
%ADD20R,1.500000X1.050000*%
%ADD21O,1.500000X1.050000*%
%ADD22R,2.500000X4.500000*%
%ADD23O,2.500000X4.500000*%
%ADD24C,1.200000*%
%ADD25C,2.400000*%
%ADD26C,1.440000*%
%ADD27RoundRect,0.575000X-0.575000X0.575000X-0.575000X-0.575000X0.575000X-0.575000X0.575000X0.575000X0*%
%ADD28C,2.300000*%
%ADD29RoundRect,0.250000X-0.550000X0.550000X-0.550000X-0.550000X0.550000X-0.550000X0.550000X0.550000X0*%
G04 APERTURE END LIST*
D10*
%TO.C,R9*%
X113500000Y-105000000D03*
X103340000Y-105000000D03*
%TD*%
D11*
%TO.C,D3*%
X129500000Y-99810000D03*
D10*
X129500000Y-92190000D03*
%TD*%
D12*
%TO.C,Q7*%
X156500000Y-87500000D03*
D13*
X154220000Y-87500000D03*
X151940000Y-87500000D03*
%TD*%
D10*
%TO.C,R2*%
X163000000Y-103190000D03*
X163000000Y-113350000D03*
%TD*%
%TO.C,R8*%
X113500000Y-102000000D03*
X103340000Y-102000000D03*
%TD*%
%TO.C,R14*%
X89500000Y-91000000D03*
X89500000Y-80840000D03*
%TD*%
D14*
%TO.C,C6*%
X183500000Y-103500000D03*
D15*
X183500000Y-108500000D03*
%TD*%
D16*
%TO.C,Q12*%
X127000000Y-93000000D03*
D17*
X125730000Y-93000000D03*
X124460000Y-93000000D03*
%TD*%
D10*
%TO.C,R13*%
X145000000Y-100500000D03*
X145000000Y-90340000D03*
%TD*%
%TO.C,R5*%
X168690000Y-110000000D03*
X176310000Y-110000000D03*
%TD*%
D18*
%TO.C,SPK-1*%
X141500000Y-120500000D03*
%TD*%
D19*
%TO.C,D2*%
X124500000Y-108000000D03*
D10*
X116880000Y-108000000D03*
%TD*%
D20*
%TO.C,Q1*%
X169000000Y-112960000D03*
D21*
X169000000Y-114230000D03*
X169000000Y-115500000D03*
%TD*%
D10*
%TO.C,C3*%
X153250000Y-92000000D03*
X155750000Y-92000000D03*
%TD*%
%TO.C,R4*%
X132340000Y-111500000D03*
X142500000Y-111500000D03*
%TD*%
D22*
%TO.C,Q8*%
X92600000Y-79000000D03*
D23*
X98050000Y-79000000D03*
X103500000Y-79000000D03*
%TD*%
D22*
%TO.C,Q11*%
X176600000Y-79500000D03*
D23*
X182050000Y-79500000D03*
X187500000Y-79500000D03*
%TD*%
D16*
%TO.C,Q5*%
X143500000Y-104000000D03*
D17*
X142230000Y-104000000D03*
X140960000Y-104000000D03*
%TD*%
D24*
%TO.C,C5*%
X98500000Y-114750000D03*
X98500000Y-116250000D03*
%TD*%
D18*
%TO.C,-22V1*%
X192500000Y-121500000D03*
%TD*%
D10*
%TO.C,JP1*%
X160000000Y-122000000D03*
X160000000Y-111840000D03*
%TD*%
D11*
%TO.C,D5*%
X87000000Y-89310000D03*
D10*
X87000000Y-81690000D03*
%TD*%
%TO.C,R27*%
X112580000Y-115500000D03*
X102420000Y-115500000D03*
%TD*%
D14*
%TO.C,C7*%
X96500000Y-103500000D03*
D15*
X96500000Y-108500000D03*
%TD*%
D19*
%TO.C,D1*%
X112120000Y-108000000D03*
D10*
X104500000Y-108000000D03*
%TD*%
D25*
%TO.C,R21*%
X144500000Y-85000000D03*
X144500000Y-57060000D03*
%TD*%
D16*
%TO.C,Q4*%
X132500000Y-105000000D03*
D17*
X133770000Y-105000000D03*
X135040000Y-105000000D03*
%TD*%
D10*
%TO.C,R25*%
X116340000Y-99000000D03*
X126500000Y-99000000D03*
%TD*%
D18*
%TO.C,SPK+1*%
X132500000Y-115500000D03*
%TD*%
D24*
%TO.C,C4*%
X182500000Y-114250000D03*
X182500000Y-115750000D03*
%TD*%
D10*
%TO.C,R6*%
X144840000Y-119500000D03*
X155000000Y-119500000D03*
%TD*%
%TO.C,R10*%
X132000000Y-100000000D03*
X132000000Y-89840000D03*
%TD*%
D20*
%TO.C,Q14*%
X120000000Y-115500000D03*
D21*
X120000000Y-114230000D03*
X120000000Y-112960000D03*
%TD*%
D12*
%TO.C,Q3*%
X174500000Y-103500000D03*
D13*
X172220000Y-103500000D03*
X169940000Y-103500000D03*
%TD*%
D10*
%TO.C,R22*%
X124000000Y-119000000D03*
X113840000Y-119000000D03*
%TD*%
D18*
%TO.C,In+1*%
X153500000Y-109000000D03*
%TD*%
D26*
%TO.C,VR1*%
X125040000Y-103915000D03*
X122500000Y-103915000D03*
X119960000Y-103915000D03*
%TD*%
D11*
%TO.C,D4*%
X148000000Y-98500000D03*
D10*
X148000000Y-90880000D03*
%TD*%
%TO.C,C2*%
X171000000Y-107000000D03*
X173500000Y-107000000D03*
%TD*%
D27*
%TO.C,F1*%
X192500000Y-94600000D03*
X192500000Y-99200000D03*
D28*
X192500000Y-110500000D03*
X192500000Y-115100000D03*
%TD*%
D10*
%TO.C,R12*%
X141500000Y-100580000D03*
X141500000Y-90420000D03*
%TD*%
%TO.C,R3*%
X112500000Y-111500000D03*
X102340000Y-111500000D03*
%TD*%
D29*
%TO.C,D6*%
X194000000Y-81690000D03*
D10*
X194000000Y-89310000D03*
%TD*%
%TO.C,R23*%
X155080000Y-116500000D03*
X144920000Y-116500000D03*
%TD*%
D27*
%TO.C,F2*%
X87000000Y-95750000D03*
X87000000Y-100350000D03*
D28*
X87000000Y-111650000D03*
X87000000Y-116250000D03*
%TD*%
D20*
%TO.C,Q13*%
X125000000Y-115500000D03*
D21*
X125000000Y-114230000D03*
X125000000Y-112960000D03*
%TD*%
D10*
%TO.C,R1*%
X166000000Y-103190000D03*
X166000000Y-113350000D03*
%TD*%
%TO.C,C8*%
X107000000Y-119000000D03*
X104500000Y-119000000D03*
%TD*%
D18*
%TO.C,In-1*%
X158500000Y-109000000D03*
%TD*%
D20*
%TO.C,Q2*%
X176000000Y-112960000D03*
D21*
X176000000Y-114230000D03*
X176000000Y-115500000D03*
%TD*%
D10*
%TO.C,R15*%
X191500000Y-81000000D03*
X191500000Y-91160000D03*
%TD*%
D12*
%TO.C,Q6*%
X128500000Y-88000000D03*
D13*
X126220000Y-88000000D03*
X123940000Y-88000000D03*
%TD*%
D25*
%TO.C,R20*%
X134500000Y-57000000D03*
X134500000Y-84940000D03*
%TD*%
D10*
%TO.C,C1*%
X159000000Y-103500000D03*
X156500000Y-103500000D03*
%TD*%
D18*
%TO.C,+22V1*%
X87000000Y-122000000D03*
%TD*%
D10*
%TO.C,R7*%
X155000000Y-113500000D03*
X144840000Y-113500000D03*
%TD*%
%TO.C,R24*%
X152000000Y-99500000D03*
X162160000Y-99500000D03*
%TD*%
%TO.C,R11*%
X135000000Y-100000000D03*
X135000000Y-89840000D03*
%TD*%
M02*
