%TF.GenerationSoftware,KiCad,Pcbnew,9.0.7*%
%TF.CreationDate,2026-01-16T20:44:45+01:00*%
%TF.ProjectId,p27_amppower,7032375f-616d-4707-906f-7765722e6b69,rev?*%
%TF.SameCoordinates,Original*%
%TF.FileFunction,Copper,L1,Top*%
%TF.FilePolarity,Positive*%
%FSLAX46Y46*%
G04 Gerber Fmt 4.6, Leading zero omitted, Abs format (unit mm)*
G04 Created by KiCad (PCBNEW 9.0.7) date 2026-01-16 20:44:45*
%MOMM*%
%LPD*%
G01*
G04 APERTURE LIST*
G04 Aperture macros list*
%AMRoundRect*
0 Rectangle with rounded corners*
0 $1 Rounding radius*
0 $2 $3 $4 $5 $6 $7 $8 $9 X,Y pos of 4 corners*
0 Add a 4 corners polygon primitive as box body*
4,1,4,$2,$3,$4,$5,$6,$7,$8,$9,$2,$3,0*
0 Add four circle primitives for the rounded corners*
1,1,$1+$1,$2,$3*
1,1,$1+$1,$4,$5*
1,1,$1+$1,$6,$7*
1,1,$1+$1,$8,$9*
0 Add four rect primitives between the rounded corners*
20,1,$1+$1,$2,$3,$4,$5,0*
20,1,$1+$1,$4,$5,$6,$7,0*
20,1,$1+$1,$6,$7,$8,$9,0*
20,1,$1+$1,$8,$9,$2,$3,0*%
G04 Aperture macros list end*
%TA.AperFunction,ComponentPad*%
%ADD10C,1.600000*%
%TD*%
%TA.AperFunction,ComponentPad*%
%ADD11RoundRect,0.250000X0.550000X-0.550000X0.550000X0.550000X-0.550000X0.550000X-0.550000X-0.550000X0*%
%TD*%
%TA.AperFunction,ComponentPad*%
%ADD12R,1.710000X1.800000*%
%TD*%
%TA.AperFunction,ComponentPad*%
%ADD13O,1.710000X1.800000*%
%TD*%
%TA.AperFunction,ComponentPad*%
%ADD14RoundRect,0.250000X-0.750000X0.750000X-0.750000X-0.750000X0.750000X-0.750000X0.750000X0.750000X0*%
%TD*%
%TA.AperFunction,ComponentPad*%
%ADD15C,2.000000*%
%TD*%
%TA.AperFunction,ComponentPad*%
%ADD16R,1.050000X1.500000*%
%TD*%
%TA.AperFunction,ComponentPad*%
%ADD17O,1.050000X1.500000*%
%TD*%
%TA.AperFunction,ComponentPad*%
%ADD18R,1.700000X1.700000*%
%TD*%
%TA.AperFunction,ComponentPad*%
%ADD19RoundRect,0.250000X0.550000X0.550000X-0.550000X0.550000X-0.550000X-0.550000X0.550000X-0.550000X0*%
%TD*%
%TA.AperFunction,ComponentPad*%
%ADD20R,1.500000X1.050000*%
%TD*%
%TA.AperFunction,ComponentPad*%
%ADD21O,1.500000X1.050000*%
%TD*%
%TA.AperFunction,ComponentPad*%
%ADD22R,2.500000X4.500000*%
%TD*%
%TA.AperFunction,ComponentPad*%
%ADD23O,2.500000X4.500000*%
%TD*%
%TA.AperFunction,ComponentPad*%
%ADD24C,1.200000*%
%TD*%
%TA.AperFunction,ComponentPad*%
%ADD25C,2.400000*%
%TD*%
%TA.AperFunction,ComponentPad*%
%ADD26C,1.440000*%
%TD*%
%TA.AperFunction,ComponentPad*%
%ADD27RoundRect,0.575000X-0.575000X0.575000X-0.575000X-0.575000X0.575000X-0.575000X0.575000X0.575000X0*%
%TD*%
%TA.AperFunction,ComponentPad*%
%ADD28C,2.300000*%
%TD*%
%TA.AperFunction,ComponentPad*%
%ADD29RoundRect,0.250000X-0.550000X0.550000X-0.550000X-0.550000X0.550000X-0.550000X0.550000X0.550000X0*%
%TD*%
G04 APERTURE END LIST*
D10*
%TO.P,R9,2*%
%TO.N,Net-(D1-A)*%
X113500000Y-105000000D03*
%TO.P,R9,1*%
%TO.N,Net-(C5-Pad1)*%
X103340000Y-105000000D03*
%TD*%
D11*
%TO.P,D3,1,K*%
%TO.N,Net-(D3-K)*%
X129500000Y-99810000D03*
D10*
%TO.P,D3,2,A*%
%TO.N,Net-(D1-A)*%
X129500000Y-92190000D03*
%TD*%
D12*
%TO.P,Q7,1,E*%
%TO.N,Net-(D6-K)*%
X156500000Y-87500000D03*
D13*
%TO.P,Q7,2,C*%
%TO.N,Net-(Q11-B)*%
X154220000Y-87500000D03*
%TO.P,Q7,3,B*%
%TO.N,Net-(D2-K)*%
X151940000Y-87500000D03*
%TD*%
D10*
%TO.P,R2,1*%
%TO.N,Net-(C1-Pad1)*%
X163000000Y-103190000D03*
%TO.P,R2,2*%
%TO.N,Net-(In-1-Pin_1)*%
X163000000Y-113350000D03*
%TD*%
%TO.P,R8,1*%
%TO.N,Net-(D5-K)*%
X113500000Y-102000000D03*
%TO.P,R8,2*%
%TO.N,Net-(C5-Pad1)*%
X103340000Y-102000000D03*
%TD*%
%TO.P,R14,1*%
%TO.N,Net-(D5-K)*%
X89500000Y-91000000D03*
%TO.P,R14,2*%
%TO.N,Net-(Q6-C)*%
X89500000Y-80840000D03*
%TD*%
D14*
%TO.P,C6,1*%
%TO.N,GNDREF*%
X183500000Y-103500000D03*
D15*
%TO.P,C6,2*%
%TO.N,Net-(D6-A)*%
X183500000Y-108500000D03*
%TD*%
D16*
%TO.P,Q12,1,C*%
%TO.N,Net-(D1-A)*%
X127000000Y-93000000D03*
D17*
%TO.P,Q12,2,B*%
%TO.N,Net-(Q12-B)*%
X125730000Y-93000000D03*
%TO.P,Q12,3,E*%
%TO.N,Net-(D2-K)*%
X124460000Y-93000000D03*
%TD*%
D10*
%TO.P,R13,1*%
%TO.N,Net-(Q5-B)*%
X145000000Y-100500000D03*
%TO.P,R13,2*%
%TO.N,Net-(D6-K)*%
X145000000Y-90340000D03*
%TD*%
%TO.P,R5,1*%
%TO.N,Net-(Q1-C)*%
X168690000Y-110000000D03*
%TO.P,R5,2*%
%TO.N,Net-(D6-A)*%
X176310000Y-110000000D03*
%TD*%
D18*
%TO.P,SPK-1,1,Pin_1*%
%TO.N,Net-(SPK-1-Pin_1)*%
X141500000Y-120500000D03*
%TD*%
D19*
%TO.P,D2,1,K*%
%TO.N,Net-(D2-K)*%
X124500000Y-108000000D03*
D10*
%TO.P,D2,2,A*%
%TO.N,Net-(D1-K)*%
X116880000Y-108000000D03*
%TD*%
D20*
%TO.P,Q1,1,C*%
%TO.N,Net-(Q1-C)*%
X169000000Y-112960000D03*
D21*
%TO.P,Q1,2,B*%
%TO.N,Net-(Q1-B)*%
X169000000Y-114230000D03*
%TO.P,Q1,3,E*%
%TO.N,Net-(Q1-E)*%
X169000000Y-115500000D03*
%TD*%
D10*
%TO.P,C3,1*%
%TO.N,Net-(Q11-B)*%
X153250000Y-92000000D03*
%TO.P,C3,2*%
%TO.N,Net-(D2-K)*%
X155750000Y-92000000D03*
%TD*%
%TO.P,R4,1*%
%TO.N,Net-(Q13-C)*%
X132340000Y-111500000D03*
%TO.P,R4,2*%
%TO.N,Net-(Q1-E)*%
X142500000Y-111500000D03*
%TD*%
D22*
%TO.P,Q8,1,B*%
%TO.N,Net-(Q6-C)*%
X92600000Y-79000000D03*
D23*
%TO.P,Q8,2,C*%
%TO.N,Net-(D5-K)*%
X98050000Y-79000000D03*
%TO.P,Q8,3,E*%
%TO.N,Net-(D5-A)*%
X103500000Y-79000000D03*
%TD*%
D22*
%TO.P,Q11,1,B*%
%TO.N,Net-(Q11-B)*%
X176600000Y-79500000D03*
D23*
%TO.P,Q11,2,C*%
%TO.N,Net-(D6-K)*%
X182050000Y-79500000D03*
%TO.P,Q11,3,E*%
%TO.N,Net-(D6-A)*%
X187500000Y-79500000D03*
%TD*%
D16*
%TO.P,Q5,1,C*%
%TO.N,Net-(D4-A)*%
X143500000Y-104000000D03*
D17*
%TO.P,Q5,2,B*%
%TO.N,Net-(Q5-B)*%
X142230000Y-104000000D03*
%TO.P,Q5,3,E*%
%TO.N,Net-(Q4-E)*%
X140960000Y-104000000D03*
%TD*%
D24*
%TO.P,C5,1*%
%TO.N,Net-(C5-Pad1)*%
X98500000Y-114750000D03*
%TO.P,C5,2*%
%TO.N,Net-(Q4-E)*%
X98500000Y-116250000D03*
%TD*%
D18*
%TO.P,-22V1,1,Pin_1*%
%TO.N,Net-(-22V1-Pin_1)*%
X192500000Y-121500000D03*
%TD*%
D10*
%TO.P,JP1,1,A*%
%TO.N,GNDREF*%
X160000000Y-122000000D03*
%TO.P,JP1,2,B*%
%TO.N,Net-(In-1-Pin_1)*%
X160000000Y-111840000D03*
%TD*%
D11*
%TO.P,D5,1,K*%
%TO.N,Net-(D5-K)*%
X87000000Y-89310000D03*
D10*
%TO.P,D5,2,A*%
%TO.N,Net-(D5-A)*%
X87000000Y-81690000D03*
%TD*%
%TO.P,R27,1*%
%TO.N,Net-(Q13-B)*%
X112580000Y-115500000D03*
%TO.P,R27,2*%
%TO.N,GNDREF*%
X102420000Y-115500000D03*
%TD*%
D14*
%TO.P,C7,1*%
%TO.N,Net-(D5-K)*%
X96500000Y-103500000D03*
D15*
%TO.P,C7,2*%
%TO.N,GNDREF*%
X96500000Y-108500000D03*
%TD*%
D19*
%TO.P,D1,1,K*%
%TO.N,Net-(D1-K)*%
X112120000Y-108000000D03*
D10*
%TO.P,D1,2,A*%
%TO.N,Net-(D1-A)*%
X104500000Y-108000000D03*
%TD*%
D25*
%TO.P,R21,1*%
%TO.N,Net-(Q4-E)*%
X144500000Y-85000000D03*
%TO.P,R21,2*%
%TO.N,Net-(D6-K)*%
X144500000Y-57060000D03*
%TD*%
D16*
%TO.P,Q4,1,C*%
%TO.N,Net-(D3-K)*%
X132500000Y-105000000D03*
D17*
%TO.P,Q4,2,B*%
%TO.N,Net-(Q4-B)*%
X133770000Y-105000000D03*
%TO.P,Q4,3,E*%
%TO.N,Net-(Q4-E)*%
X135040000Y-105000000D03*
%TD*%
D10*
%TO.P,R25,1*%
%TO.N,Net-(D1-A)*%
X116340000Y-99000000D03*
%TO.P,R25,2*%
%TO.N,Net-(Q12-B)*%
X126500000Y-99000000D03*
%TD*%
D18*
%TO.P,SPK+1,1,Pin_1*%
%TO.N,Net-(Q4-E)*%
X132500000Y-115500000D03*
%TD*%
D24*
%TO.P,C4,1*%
%TO.N,Net-(Q2-B)*%
X182500000Y-114250000D03*
%TO.P,C4,2*%
%TO.N,Net-(C4-Pad2)*%
X182500000Y-115750000D03*
%TD*%
D10*
%TO.P,R6,1*%
%TO.N,Net-(C4-Pad2)*%
X144840000Y-119500000D03*
%TO.P,R6,2*%
%TO.N,GNDREF*%
X155000000Y-119500000D03*
%TD*%
%TO.P,R10,1*%
%TO.N,Net-(Q4-B)*%
X132000000Y-100000000D03*
%TO.P,R10,2*%
%TO.N,Net-(D5-A)*%
X132000000Y-89840000D03*
%TD*%
D20*
%TO.P,Q14,1,C*%
%TO.N,Net-(Q13-B)*%
X120000000Y-115500000D03*
D21*
%TO.P,Q14,2,B*%
%TO.N,Net-(Q13-E)*%
X120000000Y-114230000D03*
%TO.P,Q14,3,E*%
%TO.N,Net-(D5-K)*%
X120000000Y-112960000D03*
%TD*%
D12*
%TO.P,Q3,1,E*%
%TO.N,Net-(D6-A)*%
X174500000Y-103500000D03*
D13*
%TO.P,Q3,2,C*%
%TO.N,Net-(Q3-C)*%
X172220000Y-103500000D03*
%TO.P,Q3,3,B*%
%TO.N,Net-(Q1-C)*%
X169940000Y-103500000D03*
%TD*%
D10*
%TO.P,R22,1*%
%TO.N,Net-(Q4-E)*%
X124000000Y-119000000D03*
%TO.P,R22,2*%
%TO.N,Net-(C8-Pad1)*%
X113840000Y-119000000D03*
%TD*%
D18*
%TO.P,In+1,1,Pin_1*%
%TO.N,Net-(In+1-Pin_1)*%
X153500000Y-109000000D03*
%TD*%
D26*
%TO.P,VR1,1,1*%
%TO.N,Net-(Q12-B)*%
X125040000Y-103915000D03*
%TO.P,VR1,2,2*%
%TO.N,Net-(D2-K)*%
X122500000Y-103915000D03*
%TO.P,VR1,3,3*%
X119960000Y-103915000D03*
%TD*%
D11*
%TO.P,D4,1,K*%
%TO.N,Net-(D2-K)*%
X148000000Y-98500000D03*
D10*
%TO.P,D4,2,A*%
%TO.N,Net-(D4-A)*%
X148000000Y-90880000D03*
%TD*%
%TO.P,C2,1*%
%TO.N,Net-(Q3-C)*%
X171000000Y-107000000D03*
%TO.P,C2,2*%
%TO.N,Net-(Q1-C)*%
X173500000Y-107000000D03*
%TD*%
D27*
%TO.P,F1,1*%
%TO.N,Net-(D6-A)*%
X192500000Y-94600000D03*
X192500000Y-99200000D03*
D28*
%TO.P,F1,2*%
%TO.N,Net-(-22V1-Pin_1)*%
X192500000Y-110500000D03*
X192500000Y-115100000D03*
%TD*%
D10*
%TO.P,R12,1*%
%TO.N,Net-(Q5-B)*%
X141500000Y-100580000D03*
%TO.P,R12,2*%
%TO.N,Net-(Q4-E)*%
X141500000Y-90420000D03*
%TD*%
%TO.P,R3,1*%
%TO.N,Net-(D5-K)*%
X112500000Y-111500000D03*
%TO.P,R3,2*%
%TO.N,Net-(Q13-E)*%
X102340000Y-111500000D03*
%TD*%
D29*
%TO.P,D6,1,K*%
%TO.N,Net-(D6-K)*%
X194000000Y-81690000D03*
D10*
%TO.P,D6,2,A*%
%TO.N,Net-(D6-A)*%
X194000000Y-89310000D03*
%TD*%
%TO.P,R23,1*%
%TO.N,Net-(C4-Pad2)*%
X155080000Y-116500000D03*
%TO.P,R23,2*%
%TO.N,Net-(SPK-1-Pin_1)*%
X144920000Y-116500000D03*
%TD*%
D27*
%TO.P,F2,1*%
%TO.N,Net-(D5-K)*%
X87000000Y-95750000D03*
X87000000Y-100350000D03*
D28*
%TO.P,F2,2*%
%TO.N,Net-(+22V1-Pin_1)*%
X87000000Y-111650000D03*
X87000000Y-116250000D03*
%TD*%
D20*
%TO.P,Q13,1,C*%
%TO.N,Net-(Q13-C)*%
X125000000Y-115500000D03*
D21*
%TO.P,Q13,2,B*%
%TO.N,Net-(Q13-B)*%
X125000000Y-114230000D03*
%TO.P,Q13,3,E*%
%TO.N,Net-(Q13-E)*%
X125000000Y-112960000D03*
%TD*%
D10*
%TO.P,R1,1*%
%TO.N,Net-(C1-Pad1)*%
X166000000Y-103190000D03*
%TO.P,R1,2*%
%TO.N,Net-(Q1-B)*%
X166000000Y-113350000D03*
%TD*%
%TO.P,C8,1*%
%TO.N,Net-(C8-Pad1)*%
X107000000Y-119000000D03*
%TO.P,C8,2*%
%TO.N,GNDREF*%
X104500000Y-119000000D03*
%TD*%
D18*
%TO.P,In-1,1,Pin_1*%
%TO.N,Net-(In-1-Pin_1)*%
X158500000Y-109000000D03*
%TD*%
D20*
%TO.P,Q2,1,C*%
%TO.N,Net-(D6-A)*%
X176000000Y-112960000D03*
D21*
%TO.P,Q2,2,B*%
%TO.N,Net-(Q2-B)*%
X176000000Y-114230000D03*
%TO.P,Q2,3,E*%
%TO.N,Net-(Q1-E)*%
X176000000Y-115500000D03*
%TD*%
D10*
%TO.P,R15,1*%
%TO.N,Net-(Q11-B)*%
X191500000Y-81000000D03*
%TO.P,R15,2*%
%TO.N,Net-(D6-A)*%
X191500000Y-91160000D03*
%TD*%
D12*
%TO.P,Q6,1,E*%
%TO.N,Net-(D5-A)*%
X128500000Y-88000000D03*
D13*
%TO.P,Q6,2,C*%
%TO.N,Net-(Q6-C)*%
X126220000Y-88000000D03*
%TO.P,Q6,3,B*%
%TO.N,Net-(D1-A)*%
X123940000Y-88000000D03*
%TD*%
D25*
%TO.P,R20,1*%
%TO.N,Net-(D5-A)*%
X134500000Y-57000000D03*
%TO.P,R20,2*%
%TO.N,Net-(Q4-E)*%
X134500000Y-84940000D03*
%TD*%
D10*
%TO.P,C1,1*%
%TO.N,Net-(C1-Pad1)*%
X159000000Y-103500000D03*
%TO.P,C1,2*%
%TO.N,Net-(In+1-Pin_1)*%
X156500000Y-103500000D03*
%TD*%
D18*
%TO.P,+22V1,1,Pin_1*%
%TO.N,Net-(+22V1-Pin_1)*%
X87000000Y-122000000D03*
%TD*%
D10*
%TO.P,R7,1*%
%TO.N,Net-(Q2-B)*%
X155000000Y-113500000D03*
%TO.P,R7,2*%
%TO.N,Net-(Q4-E)*%
X144840000Y-113500000D03*
%TD*%
%TO.P,R24,1*%
%TO.N,Net-(D2-K)*%
X152000000Y-99500000D03*
%TO.P,R24,2*%
%TO.N,Net-(Q3-C)*%
X162160000Y-99500000D03*
%TD*%
%TO.P,R11,1*%
%TO.N,Net-(Q4-B)*%
X135000000Y-100000000D03*
%TO.P,R11,2*%
%TO.N,Net-(Q4-E)*%
X135000000Y-89840000D03*
%TD*%
M02*
