%TF.GenerationSoftware,KiCad,Pcbnew,9.0.7*%
%TF.CreationDate,2026-01-16T20:44:45+01:00*%
%TF.ProjectId,p27_amppower,7032375f-616d-4707-906f-7765722e6b69,rev?*%
%TF.SameCoordinates,Original*%
%TF.FileFunction,Legend,Top*%
%TF.FilePolarity,Positive*%
%FSLAX46Y46*%
G04 Gerber Fmt 4.6, Leading zero omitted, Abs format (unit mm)*
G04 Created by KiCad (PCBNEW 9.0.7) date 2026-01-16 20:44:45*
%MOMM*%
%LPD*%
G01*
G04 APERTURE LIST*
%ADD10C,0.150000*%
%ADD11C,0.120000*%
G04 APERTURE END LIST*
D10*
X106333333Y-104954819D02*
X106000000Y-104478628D01*
X105761905Y-104954819D02*
X105761905Y-103954819D01*
X105761905Y-103954819D02*
X106142857Y-103954819D01*
X106142857Y-103954819D02*
X106238095Y-104002438D01*
X106238095Y-104002438D02*
X106285714Y-104050057D01*
X106285714Y-104050057D02*
X106333333Y-104145295D01*
X106333333Y-104145295D02*
X106333333Y-104288152D01*
X106333333Y-104288152D02*
X106285714Y-104383390D01*
X106285714Y-104383390D02*
X106238095Y-104431009D01*
X106238095Y-104431009D02*
X106142857Y-104478628D01*
X106142857Y-104478628D02*
X105761905Y-104478628D01*
X106809524Y-104954819D02*
X107000000Y-104954819D01*
X107000000Y-104954819D02*
X107095238Y-104907200D01*
X107095238Y-104907200D02*
X107142857Y-104859580D01*
X107142857Y-104859580D02*
X107238095Y-104716723D01*
X107238095Y-104716723D02*
X107285714Y-104526247D01*
X107285714Y-104526247D02*
X107285714Y-104145295D01*
X107285714Y-104145295D02*
X107238095Y-104050057D01*
X107238095Y-104050057D02*
X107190476Y-104002438D01*
X107190476Y-104002438D02*
X107095238Y-103954819D01*
X107095238Y-103954819D02*
X106904762Y-103954819D01*
X106904762Y-103954819D02*
X106809524Y-104002438D01*
X106809524Y-104002438D02*
X106761905Y-104050057D01*
X106761905Y-104050057D02*
X106714286Y-104145295D01*
X106714286Y-104145295D02*
X106714286Y-104383390D01*
X106714286Y-104383390D02*
X106761905Y-104478628D01*
X106761905Y-104478628D02*
X106809524Y-104526247D01*
X106809524Y-104526247D02*
X106904762Y-104573866D01*
X106904762Y-104573866D02*
X107095238Y-104573866D01*
X107095238Y-104573866D02*
X107190476Y-104526247D01*
X107190476Y-104526247D02*
X107238095Y-104478628D01*
X107238095Y-104478628D02*
X107285714Y-104383390D01*
X127834819Y-96738094D02*
X126834819Y-96738094D01*
X126834819Y-96738094D02*
X126834819Y-96499999D01*
X126834819Y-96499999D02*
X126882438Y-96357142D01*
X126882438Y-96357142D02*
X126977676Y-96261904D01*
X126977676Y-96261904D02*
X127072914Y-96214285D01*
X127072914Y-96214285D02*
X127263390Y-96166666D01*
X127263390Y-96166666D02*
X127406247Y-96166666D01*
X127406247Y-96166666D02*
X127596723Y-96214285D01*
X127596723Y-96214285D02*
X127691961Y-96261904D01*
X127691961Y-96261904D02*
X127787200Y-96357142D01*
X127787200Y-96357142D02*
X127834819Y-96499999D01*
X127834819Y-96499999D02*
X127834819Y-96738094D01*
X126834819Y-95833332D02*
X126834819Y-95214285D01*
X126834819Y-95214285D02*
X127215771Y-95547618D01*
X127215771Y-95547618D02*
X127215771Y-95404761D01*
X127215771Y-95404761D02*
X127263390Y-95309523D01*
X127263390Y-95309523D02*
X127311009Y-95261904D01*
X127311009Y-95261904D02*
X127406247Y-95214285D01*
X127406247Y-95214285D02*
X127644342Y-95214285D01*
X127644342Y-95214285D02*
X127739580Y-95261904D01*
X127739580Y-95261904D02*
X127787200Y-95309523D01*
X127787200Y-95309523D02*
X127834819Y-95404761D01*
X127834819Y-95404761D02*
X127834819Y-95690475D01*
X127834819Y-95690475D02*
X127787200Y-95785713D01*
X127787200Y-95785713D02*
X127739580Y-95833332D01*
X128154819Y-100071904D02*
X127154819Y-100071904D01*
X128154819Y-99500476D02*
X127583390Y-99929047D01*
X127154819Y-99500476D02*
X127726247Y-100071904D01*
X154124761Y-91000057D02*
X154029523Y-90952438D01*
X154029523Y-90952438D02*
X153934285Y-90857200D01*
X153934285Y-90857200D02*
X153791428Y-90714342D01*
X153791428Y-90714342D02*
X153696190Y-90666723D01*
X153696190Y-90666723D02*
X153600952Y-90666723D01*
X153648571Y-90904819D02*
X153553333Y-90857200D01*
X153553333Y-90857200D02*
X153458095Y-90761961D01*
X153458095Y-90761961D02*
X153410476Y-90571485D01*
X153410476Y-90571485D02*
X153410476Y-90238152D01*
X153410476Y-90238152D02*
X153458095Y-90047676D01*
X153458095Y-90047676D02*
X153553333Y-89952438D01*
X153553333Y-89952438D02*
X153648571Y-89904819D01*
X153648571Y-89904819D02*
X153839047Y-89904819D01*
X153839047Y-89904819D02*
X153934285Y-89952438D01*
X153934285Y-89952438D02*
X154029523Y-90047676D01*
X154029523Y-90047676D02*
X154077142Y-90238152D01*
X154077142Y-90238152D02*
X154077142Y-90571485D01*
X154077142Y-90571485D02*
X154029523Y-90761961D01*
X154029523Y-90761961D02*
X153934285Y-90857200D01*
X153934285Y-90857200D02*
X153839047Y-90904819D01*
X153839047Y-90904819D02*
X153648571Y-90904819D01*
X154410476Y-89904819D02*
X155077142Y-89904819D01*
X155077142Y-89904819D02*
X154648571Y-90904819D01*
X165824819Y-108436666D02*
X165348628Y-108769999D01*
X165824819Y-109008094D02*
X164824819Y-109008094D01*
X164824819Y-109008094D02*
X164824819Y-108627142D01*
X164824819Y-108627142D02*
X164872438Y-108531904D01*
X164872438Y-108531904D02*
X164920057Y-108484285D01*
X164920057Y-108484285D02*
X165015295Y-108436666D01*
X165015295Y-108436666D02*
X165158152Y-108436666D01*
X165158152Y-108436666D02*
X165253390Y-108484285D01*
X165253390Y-108484285D02*
X165301009Y-108531904D01*
X165301009Y-108531904D02*
X165348628Y-108627142D01*
X165348628Y-108627142D02*
X165348628Y-109008094D01*
X164920057Y-108055713D02*
X164872438Y-108008094D01*
X164872438Y-108008094D02*
X164824819Y-107912856D01*
X164824819Y-107912856D02*
X164824819Y-107674761D01*
X164824819Y-107674761D02*
X164872438Y-107579523D01*
X164872438Y-107579523D02*
X164920057Y-107531904D01*
X164920057Y-107531904D02*
X165015295Y-107484285D01*
X165015295Y-107484285D02*
X165110533Y-107484285D01*
X165110533Y-107484285D02*
X165253390Y-107531904D01*
X165253390Y-107531904D02*
X165824819Y-108103332D01*
X165824819Y-108103332D02*
X165824819Y-107484285D01*
X110253333Y-102954819D02*
X109920000Y-102478628D01*
X109681905Y-102954819D02*
X109681905Y-101954819D01*
X109681905Y-101954819D02*
X110062857Y-101954819D01*
X110062857Y-101954819D02*
X110158095Y-102002438D01*
X110158095Y-102002438D02*
X110205714Y-102050057D01*
X110205714Y-102050057D02*
X110253333Y-102145295D01*
X110253333Y-102145295D02*
X110253333Y-102288152D01*
X110253333Y-102288152D02*
X110205714Y-102383390D01*
X110205714Y-102383390D02*
X110158095Y-102431009D01*
X110158095Y-102431009D02*
X110062857Y-102478628D01*
X110062857Y-102478628D02*
X109681905Y-102478628D01*
X110824762Y-102383390D02*
X110729524Y-102335771D01*
X110729524Y-102335771D02*
X110681905Y-102288152D01*
X110681905Y-102288152D02*
X110634286Y-102192914D01*
X110634286Y-102192914D02*
X110634286Y-102145295D01*
X110634286Y-102145295D02*
X110681905Y-102050057D01*
X110681905Y-102050057D02*
X110729524Y-102002438D01*
X110729524Y-102002438D02*
X110824762Y-101954819D01*
X110824762Y-101954819D02*
X111015238Y-101954819D01*
X111015238Y-101954819D02*
X111110476Y-102002438D01*
X111110476Y-102002438D02*
X111158095Y-102050057D01*
X111158095Y-102050057D02*
X111205714Y-102145295D01*
X111205714Y-102145295D02*
X111205714Y-102192914D01*
X111205714Y-102192914D02*
X111158095Y-102288152D01*
X111158095Y-102288152D02*
X111110476Y-102335771D01*
X111110476Y-102335771D02*
X111015238Y-102383390D01*
X111015238Y-102383390D02*
X110824762Y-102383390D01*
X110824762Y-102383390D02*
X110729524Y-102431009D01*
X110729524Y-102431009D02*
X110681905Y-102478628D01*
X110681905Y-102478628D02*
X110634286Y-102573866D01*
X110634286Y-102573866D02*
X110634286Y-102764342D01*
X110634286Y-102764342D02*
X110681905Y-102859580D01*
X110681905Y-102859580D02*
X110729524Y-102907200D01*
X110729524Y-102907200D02*
X110824762Y-102954819D01*
X110824762Y-102954819D02*
X111015238Y-102954819D01*
X111015238Y-102954819D02*
X111110476Y-102907200D01*
X111110476Y-102907200D02*
X111158095Y-102859580D01*
X111158095Y-102859580D02*
X111205714Y-102764342D01*
X111205714Y-102764342D02*
X111205714Y-102573866D01*
X111205714Y-102573866D02*
X111158095Y-102478628D01*
X111158095Y-102478628D02*
X111110476Y-102431009D01*
X111110476Y-102431009D02*
X111015238Y-102383390D01*
X87584819Y-86562857D02*
X87108628Y-86896190D01*
X87584819Y-87134285D02*
X86584819Y-87134285D01*
X86584819Y-87134285D02*
X86584819Y-86753333D01*
X86584819Y-86753333D02*
X86632438Y-86658095D01*
X86632438Y-86658095D02*
X86680057Y-86610476D01*
X86680057Y-86610476D02*
X86775295Y-86562857D01*
X86775295Y-86562857D02*
X86918152Y-86562857D01*
X86918152Y-86562857D02*
X87013390Y-86610476D01*
X87013390Y-86610476D02*
X87061009Y-86658095D01*
X87061009Y-86658095D02*
X87108628Y-86753333D01*
X87108628Y-86753333D02*
X87108628Y-87134285D01*
X87584819Y-85610476D02*
X87584819Y-86181904D01*
X87584819Y-85896190D02*
X86584819Y-85896190D01*
X86584819Y-85896190D02*
X86727676Y-85991428D01*
X86727676Y-85991428D02*
X86822914Y-86086666D01*
X86822914Y-86086666D02*
X86870533Y-86181904D01*
X86918152Y-84753333D02*
X87584819Y-84753333D01*
X86537200Y-84991428D02*
X87251485Y-85229523D01*
X87251485Y-85229523D02*
X87251485Y-84610476D01*
X190109580Y-106166666D02*
X190157200Y-106214285D01*
X190157200Y-106214285D02*
X190204819Y-106357142D01*
X190204819Y-106357142D02*
X190204819Y-106452380D01*
X190204819Y-106452380D02*
X190157200Y-106595237D01*
X190157200Y-106595237D02*
X190061961Y-106690475D01*
X190061961Y-106690475D02*
X189966723Y-106738094D01*
X189966723Y-106738094D02*
X189776247Y-106785713D01*
X189776247Y-106785713D02*
X189633390Y-106785713D01*
X189633390Y-106785713D02*
X189442914Y-106738094D01*
X189442914Y-106738094D02*
X189347676Y-106690475D01*
X189347676Y-106690475D02*
X189252438Y-106595237D01*
X189252438Y-106595237D02*
X189204819Y-106452380D01*
X189204819Y-106452380D02*
X189204819Y-106357142D01*
X189204819Y-106357142D02*
X189252438Y-106214285D01*
X189252438Y-106214285D02*
X189300057Y-106166666D01*
X189204819Y-105309523D02*
X189204819Y-105499999D01*
X189204819Y-105499999D02*
X189252438Y-105595237D01*
X189252438Y-105595237D02*
X189300057Y-105642856D01*
X189300057Y-105642856D02*
X189442914Y-105738094D01*
X189442914Y-105738094D02*
X189633390Y-105785713D01*
X189633390Y-105785713D02*
X190014342Y-105785713D01*
X190014342Y-105785713D02*
X190109580Y-105738094D01*
X190109580Y-105738094D02*
X190157200Y-105690475D01*
X190157200Y-105690475D02*
X190204819Y-105595237D01*
X190204819Y-105595237D02*
X190204819Y-105404761D01*
X190204819Y-105404761D02*
X190157200Y-105309523D01*
X190157200Y-105309523D02*
X190109580Y-105261904D01*
X190109580Y-105261904D02*
X190014342Y-105214285D01*
X190014342Y-105214285D02*
X189776247Y-105214285D01*
X189776247Y-105214285D02*
X189681009Y-105261904D01*
X189681009Y-105261904D02*
X189633390Y-105309523D01*
X189633390Y-105309523D02*
X189585771Y-105404761D01*
X189585771Y-105404761D02*
X189585771Y-105595237D01*
X189585771Y-105595237D02*
X189633390Y-105690475D01*
X189633390Y-105690475D02*
X189681009Y-105738094D01*
X189681009Y-105738094D02*
X189776247Y-105785713D01*
X125158571Y-97110057D02*
X125063333Y-97062438D01*
X125063333Y-97062438D02*
X124968095Y-96967200D01*
X124968095Y-96967200D02*
X124825238Y-96824342D01*
X124825238Y-96824342D02*
X124730000Y-96776723D01*
X124730000Y-96776723D02*
X124634762Y-96776723D01*
X124682381Y-97014819D02*
X124587143Y-96967200D01*
X124587143Y-96967200D02*
X124491905Y-96871961D01*
X124491905Y-96871961D02*
X124444286Y-96681485D01*
X124444286Y-96681485D02*
X124444286Y-96348152D01*
X124444286Y-96348152D02*
X124491905Y-96157676D01*
X124491905Y-96157676D02*
X124587143Y-96062438D01*
X124587143Y-96062438D02*
X124682381Y-96014819D01*
X124682381Y-96014819D02*
X124872857Y-96014819D01*
X124872857Y-96014819D02*
X124968095Y-96062438D01*
X124968095Y-96062438D02*
X125063333Y-96157676D01*
X125063333Y-96157676D02*
X125110952Y-96348152D01*
X125110952Y-96348152D02*
X125110952Y-96681485D01*
X125110952Y-96681485D02*
X125063333Y-96871961D01*
X125063333Y-96871961D02*
X124968095Y-96967200D01*
X124968095Y-96967200D02*
X124872857Y-97014819D01*
X124872857Y-97014819D02*
X124682381Y-97014819D01*
X126063333Y-97014819D02*
X125491905Y-97014819D01*
X125777619Y-97014819D02*
X125777619Y-96014819D01*
X125777619Y-96014819D02*
X125682381Y-96157676D01*
X125682381Y-96157676D02*
X125587143Y-96252914D01*
X125587143Y-96252914D02*
X125491905Y-96300533D01*
X126444286Y-96110057D02*
X126491905Y-96062438D01*
X126491905Y-96062438D02*
X126587143Y-96014819D01*
X126587143Y-96014819D02*
X126825238Y-96014819D01*
X126825238Y-96014819D02*
X126920476Y-96062438D01*
X126920476Y-96062438D02*
X126968095Y-96110057D01*
X126968095Y-96110057D02*
X127015714Y-96205295D01*
X127015714Y-96205295D02*
X127015714Y-96300533D01*
X127015714Y-96300533D02*
X126968095Y-96443390D01*
X126968095Y-96443390D02*
X126396667Y-97014819D01*
X126396667Y-97014819D02*
X127015714Y-97014819D01*
X143084819Y-96062857D02*
X142608628Y-96396190D01*
X143084819Y-96634285D02*
X142084819Y-96634285D01*
X142084819Y-96634285D02*
X142084819Y-96253333D01*
X142084819Y-96253333D02*
X142132438Y-96158095D01*
X142132438Y-96158095D02*
X142180057Y-96110476D01*
X142180057Y-96110476D02*
X142275295Y-96062857D01*
X142275295Y-96062857D02*
X142418152Y-96062857D01*
X142418152Y-96062857D02*
X142513390Y-96110476D01*
X142513390Y-96110476D02*
X142561009Y-96158095D01*
X142561009Y-96158095D02*
X142608628Y-96253333D01*
X142608628Y-96253333D02*
X142608628Y-96634285D01*
X143084819Y-95110476D02*
X143084819Y-95681904D01*
X143084819Y-95396190D02*
X142084819Y-95396190D01*
X142084819Y-95396190D02*
X142227676Y-95491428D01*
X142227676Y-95491428D02*
X142322914Y-95586666D01*
X142322914Y-95586666D02*
X142370533Y-95681904D01*
X142084819Y-94777142D02*
X142084819Y-94158095D01*
X142084819Y-94158095D02*
X142465771Y-94491428D01*
X142465771Y-94491428D02*
X142465771Y-94348571D01*
X142465771Y-94348571D02*
X142513390Y-94253333D01*
X142513390Y-94253333D02*
X142561009Y-94205714D01*
X142561009Y-94205714D02*
X142656247Y-94158095D01*
X142656247Y-94158095D02*
X142894342Y-94158095D01*
X142894342Y-94158095D02*
X142989580Y-94205714D01*
X142989580Y-94205714D02*
X143037200Y-94253333D01*
X143037200Y-94253333D02*
X143084819Y-94348571D01*
X143084819Y-94348571D02*
X143084819Y-94634285D01*
X143084819Y-94634285D02*
X143037200Y-94729523D01*
X143037200Y-94729523D02*
X142989580Y-94777142D01*
X172333333Y-108084819D02*
X172000000Y-107608628D01*
X171761905Y-108084819D02*
X171761905Y-107084819D01*
X171761905Y-107084819D02*
X172142857Y-107084819D01*
X172142857Y-107084819D02*
X172238095Y-107132438D01*
X172238095Y-107132438D02*
X172285714Y-107180057D01*
X172285714Y-107180057D02*
X172333333Y-107275295D01*
X172333333Y-107275295D02*
X172333333Y-107418152D01*
X172333333Y-107418152D02*
X172285714Y-107513390D01*
X172285714Y-107513390D02*
X172238095Y-107561009D01*
X172238095Y-107561009D02*
X172142857Y-107608628D01*
X172142857Y-107608628D02*
X171761905Y-107608628D01*
X173238095Y-107084819D02*
X172761905Y-107084819D01*
X172761905Y-107084819D02*
X172714286Y-107561009D01*
X172714286Y-107561009D02*
X172761905Y-107513390D01*
X172761905Y-107513390D02*
X172857143Y-107465771D01*
X172857143Y-107465771D02*
X173095238Y-107465771D01*
X173095238Y-107465771D02*
X173190476Y-107513390D01*
X173190476Y-107513390D02*
X173238095Y-107561009D01*
X173238095Y-107561009D02*
X173285714Y-107656247D01*
X173285714Y-107656247D02*
X173285714Y-107894342D01*
X173285714Y-107894342D02*
X173238095Y-107989580D01*
X173238095Y-107989580D02*
X173190476Y-108037200D01*
X173190476Y-108037200D02*
X173095238Y-108084819D01*
X173095238Y-108084819D02*
X172857143Y-108084819D01*
X172857143Y-108084819D02*
X172761905Y-108037200D01*
X172761905Y-108037200D02*
X172714286Y-107989580D01*
X139119048Y-118527200D02*
X139261905Y-118574819D01*
X139261905Y-118574819D02*
X139500000Y-118574819D01*
X139500000Y-118574819D02*
X139595238Y-118527200D01*
X139595238Y-118527200D02*
X139642857Y-118479580D01*
X139642857Y-118479580D02*
X139690476Y-118384342D01*
X139690476Y-118384342D02*
X139690476Y-118289104D01*
X139690476Y-118289104D02*
X139642857Y-118193866D01*
X139642857Y-118193866D02*
X139595238Y-118146247D01*
X139595238Y-118146247D02*
X139500000Y-118098628D01*
X139500000Y-118098628D02*
X139309524Y-118051009D01*
X139309524Y-118051009D02*
X139214286Y-118003390D01*
X139214286Y-118003390D02*
X139166667Y-117955771D01*
X139166667Y-117955771D02*
X139119048Y-117860533D01*
X139119048Y-117860533D02*
X139119048Y-117765295D01*
X139119048Y-117765295D02*
X139166667Y-117670057D01*
X139166667Y-117670057D02*
X139214286Y-117622438D01*
X139214286Y-117622438D02*
X139309524Y-117574819D01*
X139309524Y-117574819D02*
X139547619Y-117574819D01*
X139547619Y-117574819D02*
X139690476Y-117622438D01*
X140119048Y-118574819D02*
X140119048Y-117574819D01*
X140119048Y-117574819D02*
X140500000Y-117574819D01*
X140500000Y-117574819D02*
X140595238Y-117622438D01*
X140595238Y-117622438D02*
X140642857Y-117670057D01*
X140642857Y-117670057D02*
X140690476Y-117765295D01*
X140690476Y-117765295D02*
X140690476Y-117908152D01*
X140690476Y-117908152D02*
X140642857Y-118003390D01*
X140642857Y-118003390D02*
X140595238Y-118051009D01*
X140595238Y-118051009D02*
X140500000Y-118098628D01*
X140500000Y-118098628D02*
X140119048Y-118098628D01*
X141119048Y-118574819D02*
X141119048Y-117574819D01*
X141690476Y-118574819D02*
X141261905Y-118003390D01*
X141690476Y-117574819D02*
X141119048Y-118146247D01*
X142119048Y-118193866D02*
X142880953Y-118193866D01*
X143880952Y-118574819D02*
X143309524Y-118574819D01*
X143595238Y-118574819D02*
X143595238Y-117574819D01*
X143595238Y-117574819D02*
X143500000Y-117717676D01*
X143500000Y-117717676D02*
X143404762Y-117812914D01*
X143404762Y-117812914D02*
X143309524Y-117860533D01*
X119951905Y-110574819D02*
X119951905Y-109574819D01*
X119951905Y-109574819D02*
X120190000Y-109574819D01*
X120190000Y-109574819D02*
X120332857Y-109622438D01*
X120332857Y-109622438D02*
X120428095Y-109717676D01*
X120428095Y-109717676D02*
X120475714Y-109812914D01*
X120475714Y-109812914D02*
X120523333Y-110003390D01*
X120523333Y-110003390D02*
X120523333Y-110146247D01*
X120523333Y-110146247D02*
X120475714Y-110336723D01*
X120475714Y-110336723D02*
X120428095Y-110431961D01*
X120428095Y-110431961D02*
X120332857Y-110527200D01*
X120332857Y-110527200D02*
X120190000Y-110574819D01*
X120190000Y-110574819D02*
X119951905Y-110574819D01*
X120904286Y-109670057D02*
X120951905Y-109622438D01*
X120951905Y-109622438D02*
X121047143Y-109574819D01*
X121047143Y-109574819D02*
X121285238Y-109574819D01*
X121285238Y-109574819D02*
X121380476Y-109622438D01*
X121380476Y-109622438D02*
X121428095Y-109670057D01*
X121428095Y-109670057D02*
X121475714Y-109765295D01*
X121475714Y-109765295D02*
X121475714Y-109860533D01*
X121475714Y-109860533D02*
X121428095Y-110003390D01*
X121428095Y-110003390D02*
X120856667Y-110574819D01*
X120856667Y-110574819D02*
X121475714Y-110574819D01*
X124238095Y-110254819D02*
X124238095Y-109254819D01*
X124809523Y-110254819D02*
X124380952Y-109683390D01*
X124809523Y-109254819D02*
X124238095Y-109826247D01*
X173110057Y-114325238D02*
X173062438Y-114420476D01*
X173062438Y-114420476D02*
X172967200Y-114515714D01*
X172967200Y-114515714D02*
X172824342Y-114658571D01*
X172824342Y-114658571D02*
X172776723Y-114753809D01*
X172776723Y-114753809D02*
X172776723Y-114849047D01*
X173014819Y-114801428D02*
X172967200Y-114896666D01*
X172967200Y-114896666D02*
X172871961Y-114991904D01*
X172871961Y-114991904D02*
X172681485Y-115039523D01*
X172681485Y-115039523D02*
X172348152Y-115039523D01*
X172348152Y-115039523D02*
X172157676Y-114991904D01*
X172157676Y-114991904D02*
X172062438Y-114896666D01*
X172062438Y-114896666D02*
X172014819Y-114801428D01*
X172014819Y-114801428D02*
X172014819Y-114610952D01*
X172014819Y-114610952D02*
X172062438Y-114515714D01*
X172062438Y-114515714D02*
X172157676Y-114420476D01*
X172157676Y-114420476D02*
X172348152Y-114372857D01*
X172348152Y-114372857D02*
X172681485Y-114372857D01*
X172681485Y-114372857D02*
X172871961Y-114420476D01*
X172871961Y-114420476D02*
X172967200Y-114515714D01*
X172967200Y-114515714D02*
X173014819Y-114610952D01*
X173014819Y-114610952D02*
X173014819Y-114801428D01*
X173014819Y-113420476D02*
X173014819Y-113991904D01*
X173014819Y-113706190D02*
X172014819Y-113706190D01*
X172014819Y-113706190D02*
X172157676Y-113801428D01*
X172157676Y-113801428D02*
X172252914Y-113896666D01*
X172252914Y-113896666D02*
X172300533Y-113991904D01*
X154333333Y-90309580D02*
X154285714Y-90357200D01*
X154285714Y-90357200D02*
X154142857Y-90404819D01*
X154142857Y-90404819D02*
X154047619Y-90404819D01*
X154047619Y-90404819D02*
X153904762Y-90357200D01*
X153904762Y-90357200D02*
X153809524Y-90261961D01*
X153809524Y-90261961D02*
X153761905Y-90166723D01*
X153761905Y-90166723D02*
X153714286Y-89976247D01*
X153714286Y-89976247D02*
X153714286Y-89833390D01*
X153714286Y-89833390D02*
X153761905Y-89642914D01*
X153761905Y-89642914D02*
X153809524Y-89547676D01*
X153809524Y-89547676D02*
X153904762Y-89452438D01*
X153904762Y-89452438D02*
X154047619Y-89404819D01*
X154047619Y-89404819D02*
X154142857Y-89404819D01*
X154142857Y-89404819D02*
X154285714Y-89452438D01*
X154285714Y-89452438D02*
X154333333Y-89500057D01*
X154666667Y-89404819D02*
X155285714Y-89404819D01*
X155285714Y-89404819D02*
X154952381Y-89785771D01*
X154952381Y-89785771D02*
X155095238Y-89785771D01*
X155095238Y-89785771D02*
X155190476Y-89833390D01*
X155190476Y-89833390D02*
X155238095Y-89881009D01*
X155238095Y-89881009D02*
X155285714Y-89976247D01*
X155285714Y-89976247D02*
X155285714Y-90214342D01*
X155285714Y-90214342D02*
X155238095Y-90309580D01*
X155238095Y-90309580D02*
X155190476Y-90357200D01*
X155190476Y-90357200D02*
X155095238Y-90404819D01*
X155095238Y-90404819D02*
X154809524Y-90404819D01*
X154809524Y-90404819D02*
X154714286Y-90357200D01*
X154714286Y-90357200D02*
X154666667Y-90309580D01*
X137253333Y-109584819D02*
X136920000Y-109108628D01*
X136681905Y-109584819D02*
X136681905Y-108584819D01*
X136681905Y-108584819D02*
X137062857Y-108584819D01*
X137062857Y-108584819D02*
X137158095Y-108632438D01*
X137158095Y-108632438D02*
X137205714Y-108680057D01*
X137205714Y-108680057D02*
X137253333Y-108775295D01*
X137253333Y-108775295D02*
X137253333Y-108918152D01*
X137253333Y-108918152D02*
X137205714Y-109013390D01*
X137205714Y-109013390D02*
X137158095Y-109061009D01*
X137158095Y-109061009D02*
X137062857Y-109108628D01*
X137062857Y-109108628D02*
X136681905Y-109108628D01*
X138110476Y-108918152D02*
X138110476Y-109584819D01*
X137872381Y-108537200D02*
X137634286Y-109251485D01*
X137634286Y-109251485D02*
X138253333Y-109251485D01*
X97954761Y-76270057D02*
X97859523Y-76222438D01*
X97859523Y-76222438D02*
X97764285Y-76127200D01*
X97764285Y-76127200D02*
X97621428Y-75984342D01*
X97621428Y-75984342D02*
X97526190Y-75936723D01*
X97526190Y-75936723D02*
X97430952Y-75936723D01*
X97478571Y-76174819D02*
X97383333Y-76127200D01*
X97383333Y-76127200D02*
X97288095Y-76031961D01*
X97288095Y-76031961D02*
X97240476Y-75841485D01*
X97240476Y-75841485D02*
X97240476Y-75508152D01*
X97240476Y-75508152D02*
X97288095Y-75317676D01*
X97288095Y-75317676D02*
X97383333Y-75222438D01*
X97383333Y-75222438D02*
X97478571Y-75174819D01*
X97478571Y-75174819D02*
X97669047Y-75174819D01*
X97669047Y-75174819D02*
X97764285Y-75222438D01*
X97764285Y-75222438D02*
X97859523Y-75317676D01*
X97859523Y-75317676D02*
X97907142Y-75508152D01*
X97907142Y-75508152D02*
X97907142Y-75841485D01*
X97907142Y-75841485D02*
X97859523Y-76031961D01*
X97859523Y-76031961D02*
X97764285Y-76127200D01*
X97764285Y-76127200D02*
X97669047Y-76174819D01*
X97669047Y-76174819D02*
X97478571Y-76174819D01*
X98478571Y-75603390D02*
X98383333Y-75555771D01*
X98383333Y-75555771D02*
X98335714Y-75508152D01*
X98335714Y-75508152D02*
X98288095Y-75412914D01*
X98288095Y-75412914D02*
X98288095Y-75365295D01*
X98288095Y-75365295D02*
X98335714Y-75270057D01*
X98335714Y-75270057D02*
X98383333Y-75222438D01*
X98383333Y-75222438D02*
X98478571Y-75174819D01*
X98478571Y-75174819D02*
X98669047Y-75174819D01*
X98669047Y-75174819D02*
X98764285Y-75222438D01*
X98764285Y-75222438D02*
X98811904Y-75270057D01*
X98811904Y-75270057D02*
X98859523Y-75365295D01*
X98859523Y-75365295D02*
X98859523Y-75412914D01*
X98859523Y-75412914D02*
X98811904Y-75508152D01*
X98811904Y-75508152D02*
X98764285Y-75555771D01*
X98764285Y-75555771D02*
X98669047Y-75603390D01*
X98669047Y-75603390D02*
X98478571Y-75603390D01*
X98478571Y-75603390D02*
X98383333Y-75651009D01*
X98383333Y-75651009D02*
X98335714Y-75698628D01*
X98335714Y-75698628D02*
X98288095Y-75793866D01*
X98288095Y-75793866D02*
X98288095Y-75984342D01*
X98288095Y-75984342D02*
X98335714Y-76079580D01*
X98335714Y-76079580D02*
X98383333Y-76127200D01*
X98383333Y-76127200D02*
X98478571Y-76174819D01*
X98478571Y-76174819D02*
X98669047Y-76174819D01*
X98669047Y-76174819D02*
X98764285Y-76127200D01*
X98764285Y-76127200D02*
X98811904Y-76079580D01*
X98811904Y-76079580D02*
X98859523Y-75984342D01*
X98859523Y-75984342D02*
X98859523Y-75793866D01*
X98859523Y-75793866D02*
X98811904Y-75698628D01*
X98811904Y-75698628D02*
X98764285Y-75651009D01*
X98764285Y-75651009D02*
X98669047Y-75603390D01*
X181478571Y-76770057D02*
X181383333Y-76722438D01*
X181383333Y-76722438D02*
X181288095Y-76627200D01*
X181288095Y-76627200D02*
X181145238Y-76484342D01*
X181145238Y-76484342D02*
X181050000Y-76436723D01*
X181050000Y-76436723D02*
X180954762Y-76436723D01*
X181002381Y-76674819D02*
X180907143Y-76627200D01*
X180907143Y-76627200D02*
X180811905Y-76531961D01*
X180811905Y-76531961D02*
X180764286Y-76341485D01*
X180764286Y-76341485D02*
X180764286Y-76008152D01*
X180764286Y-76008152D02*
X180811905Y-75817676D01*
X180811905Y-75817676D02*
X180907143Y-75722438D01*
X180907143Y-75722438D02*
X181002381Y-75674819D01*
X181002381Y-75674819D02*
X181192857Y-75674819D01*
X181192857Y-75674819D02*
X181288095Y-75722438D01*
X181288095Y-75722438D02*
X181383333Y-75817676D01*
X181383333Y-75817676D02*
X181430952Y-76008152D01*
X181430952Y-76008152D02*
X181430952Y-76341485D01*
X181430952Y-76341485D02*
X181383333Y-76531961D01*
X181383333Y-76531961D02*
X181288095Y-76627200D01*
X181288095Y-76627200D02*
X181192857Y-76674819D01*
X181192857Y-76674819D02*
X181002381Y-76674819D01*
X182383333Y-76674819D02*
X181811905Y-76674819D01*
X182097619Y-76674819D02*
X182097619Y-75674819D01*
X182097619Y-75674819D02*
X182002381Y-75817676D01*
X182002381Y-75817676D02*
X181907143Y-75912914D01*
X181907143Y-75912914D02*
X181811905Y-75960533D01*
X183335714Y-76674819D02*
X182764286Y-76674819D01*
X183050000Y-76674819D02*
X183050000Y-75674819D01*
X183050000Y-75674819D02*
X182954762Y-75817676D01*
X182954762Y-75817676D02*
X182859524Y-75912914D01*
X182859524Y-75912914D02*
X182764286Y-75960533D01*
X142134761Y-108110057D02*
X142039523Y-108062438D01*
X142039523Y-108062438D02*
X141944285Y-107967200D01*
X141944285Y-107967200D02*
X141801428Y-107824342D01*
X141801428Y-107824342D02*
X141706190Y-107776723D01*
X141706190Y-107776723D02*
X141610952Y-107776723D01*
X141658571Y-108014819D02*
X141563333Y-107967200D01*
X141563333Y-107967200D02*
X141468095Y-107871961D01*
X141468095Y-107871961D02*
X141420476Y-107681485D01*
X141420476Y-107681485D02*
X141420476Y-107348152D01*
X141420476Y-107348152D02*
X141468095Y-107157676D01*
X141468095Y-107157676D02*
X141563333Y-107062438D01*
X141563333Y-107062438D02*
X141658571Y-107014819D01*
X141658571Y-107014819D02*
X141849047Y-107014819D01*
X141849047Y-107014819D02*
X141944285Y-107062438D01*
X141944285Y-107062438D02*
X142039523Y-107157676D01*
X142039523Y-107157676D02*
X142087142Y-107348152D01*
X142087142Y-107348152D02*
X142087142Y-107681485D01*
X142087142Y-107681485D02*
X142039523Y-107871961D01*
X142039523Y-107871961D02*
X141944285Y-107967200D01*
X141944285Y-107967200D02*
X141849047Y-108014819D01*
X141849047Y-108014819D02*
X141658571Y-108014819D01*
X142991904Y-107014819D02*
X142515714Y-107014819D01*
X142515714Y-107014819D02*
X142468095Y-107491009D01*
X142468095Y-107491009D02*
X142515714Y-107443390D01*
X142515714Y-107443390D02*
X142610952Y-107395771D01*
X142610952Y-107395771D02*
X142849047Y-107395771D01*
X142849047Y-107395771D02*
X142944285Y-107443390D01*
X142944285Y-107443390D02*
X142991904Y-107491009D01*
X142991904Y-107491009D02*
X143039523Y-107586247D01*
X143039523Y-107586247D02*
X143039523Y-107824342D01*
X143039523Y-107824342D02*
X142991904Y-107919580D01*
X142991904Y-107919580D02*
X142944285Y-107967200D01*
X142944285Y-107967200D02*
X142849047Y-108014819D01*
X142849047Y-108014819D02*
X142610952Y-108014819D01*
X142610952Y-108014819D02*
X142515714Y-107967200D01*
X142515714Y-107967200D02*
X142468095Y-107919580D01*
X93859580Y-115916666D02*
X93907200Y-115964285D01*
X93907200Y-115964285D02*
X93954819Y-116107142D01*
X93954819Y-116107142D02*
X93954819Y-116202380D01*
X93954819Y-116202380D02*
X93907200Y-116345237D01*
X93907200Y-116345237D02*
X93811961Y-116440475D01*
X93811961Y-116440475D02*
X93716723Y-116488094D01*
X93716723Y-116488094D02*
X93526247Y-116535713D01*
X93526247Y-116535713D02*
X93383390Y-116535713D01*
X93383390Y-116535713D02*
X93192914Y-116488094D01*
X93192914Y-116488094D02*
X93097676Y-116440475D01*
X93097676Y-116440475D02*
X93002438Y-116345237D01*
X93002438Y-116345237D02*
X92954819Y-116202380D01*
X92954819Y-116202380D02*
X92954819Y-116107142D01*
X92954819Y-116107142D02*
X93002438Y-115964285D01*
X93002438Y-115964285D02*
X93050057Y-115916666D01*
X92954819Y-115011904D02*
X92954819Y-115488094D01*
X92954819Y-115488094D02*
X93431009Y-115535713D01*
X93431009Y-115535713D02*
X93383390Y-115488094D01*
X93383390Y-115488094D02*
X93335771Y-115392856D01*
X93335771Y-115392856D02*
X93335771Y-115154761D01*
X93335771Y-115154761D02*
X93383390Y-115059523D01*
X93383390Y-115059523D02*
X93431009Y-115011904D01*
X93431009Y-115011904D02*
X93526247Y-114964285D01*
X93526247Y-114964285D02*
X93764342Y-114964285D01*
X93764342Y-114964285D02*
X93859580Y-115011904D01*
X93859580Y-115011904D02*
X93907200Y-115059523D01*
X93907200Y-115059523D02*
X93954819Y-115154761D01*
X93954819Y-115154761D02*
X93954819Y-115392856D01*
X93954819Y-115392856D02*
X93907200Y-115488094D01*
X93907200Y-115488094D02*
X93859580Y-115535713D01*
X190261905Y-119193866D02*
X191023810Y-119193866D01*
X191452381Y-118670057D02*
X191500000Y-118622438D01*
X191500000Y-118622438D02*
X191595238Y-118574819D01*
X191595238Y-118574819D02*
X191833333Y-118574819D01*
X191833333Y-118574819D02*
X191928571Y-118622438D01*
X191928571Y-118622438D02*
X191976190Y-118670057D01*
X191976190Y-118670057D02*
X192023809Y-118765295D01*
X192023809Y-118765295D02*
X192023809Y-118860533D01*
X192023809Y-118860533D02*
X191976190Y-119003390D01*
X191976190Y-119003390D02*
X191404762Y-119574819D01*
X191404762Y-119574819D02*
X192023809Y-119574819D01*
X192404762Y-118670057D02*
X192452381Y-118622438D01*
X192452381Y-118622438D02*
X192547619Y-118574819D01*
X192547619Y-118574819D02*
X192785714Y-118574819D01*
X192785714Y-118574819D02*
X192880952Y-118622438D01*
X192880952Y-118622438D02*
X192928571Y-118670057D01*
X192928571Y-118670057D02*
X192976190Y-118765295D01*
X192976190Y-118765295D02*
X192976190Y-118860533D01*
X192976190Y-118860533D02*
X192928571Y-119003390D01*
X192928571Y-119003390D02*
X192357143Y-119574819D01*
X192357143Y-119574819D02*
X192976190Y-119574819D01*
X193261905Y-118574819D02*
X193595238Y-119574819D01*
X193595238Y-119574819D02*
X193928571Y-118574819D01*
X194785714Y-119574819D02*
X194214286Y-119574819D01*
X194500000Y-119574819D02*
X194500000Y-118574819D01*
X194500000Y-118574819D02*
X194404762Y-118717676D01*
X194404762Y-118717676D02*
X194309524Y-118812914D01*
X194309524Y-118812914D02*
X194214286Y-118860533D01*
X157084819Y-117753333D02*
X157799104Y-117753333D01*
X157799104Y-117753333D02*
X157941961Y-117800952D01*
X157941961Y-117800952D02*
X158037200Y-117896190D01*
X158037200Y-117896190D02*
X158084819Y-118039047D01*
X158084819Y-118039047D02*
X158084819Y-118134285D01*
X158084819Y-117277142D02*
X157084819Y-117277142D01*
X157084819Y-117277142D02*
X157084819Y-116896190D01*
X157084819Y-116896190D02*
X157132438Y-116800952D01*
X157132438Y-116800952D02*
X157180057Y-116753333D01*
X157180057Y-116753333D02*
X157275295Y-116705714D01*
X157275295Y-116705714D02*
X157418152Y-116705714D01*
X157418152Y-116705714D02*
X157513390Y-116753333D01*
X157513390Y-116753333D02*
X157561009Y-116800952D01*
X157561009Y-116800952D02*
X157608628Y-116896190D01*
X157608628Y-116896190D02*
X157608628Y-117277142D01*
X158084819Y-115753333D02*
X158084819Y-116324761D01*
X158084819Y-116039047D02*
X157084819Y-116039047D01*
X157084819Y-116039047D02*
X157227676Y-116134285D01*
X157227676Y-116134285D02*
X157322914Y-116229523D01*
X157322914Y-116229523D02*
X157370533Y-116324761D01*
X85334819Y-86238094D02*
X84334819Y-86238094D01*
X84334819Y-86238094D02*
X84334819Y-85999999D01*
X84334819Y-85999999D02*
X84382438Y-85857142D01*
X84382438Y-85857142D02*
X84477676Y-85761904D01*
X84477676Y-85761904D02*
X84572914Y-85714285D01*
X84572914Y-85714285D02*
X84763390Y-85666666D01*
X84763390Y-85666666D02*
X84906247Y-85666666D01*
X84906247Y-85666666D02*
X85096723Y-85714285D01*
X85096723Y-85714285D02*
X85191961Y-85761904D01*
X85191961Y-85761904D02*
X85287200Y-85857142D01*
X85287200Y-85857142D02*
X85334819Y-85999999D01*
X85334819Y-85999999D02*
X85334819Y-86238094D01*
X84334819Y-84761904D02*
X84334819Y-85238094D01*
X84334819Y-85238094D02*
X84811009Y-85285713D01*
X84811009Y-85285713D02*
X84763390Y-85238094D01*
X84763390Y-85238094D02*
X84715771Y-85142856D01*
X84715771Y-85142856D02*
X84715771Y-84904761D01*
X84715771Y-84904761D02*
X84763390Y-84809523D01*
X84763390Y-84809523D02*
X84811009Y-84761904D01*
X84811009Y-84761904D02*
X84906247Y-84714285D01*
X84906247Y-84714285D02*
X85144342Y-84714285D01*
X85144342Y-84714285D02*
X85239580Y-84761904D01*
X85239580Y-84761904D02*
X85287200Y-84809523D01*
X85287200Y-84809523D02*
X85334819Y-84904761D01*
X85334819Y-84904761D02*
X85334819Y-85142856D01*
X85334819Y-85142856D02*
X85287200Y-85238094D01*
X85287200Y-85238094D02*
X85239580Y-85285713D01*
X85654819Y-89571904D02*
X84654819Y-89571904D01*
X85654819Y-89000476D02*
X85083390Y-89429047D01*
X84654819Y-89000476D02*
X85226247Y-89571904D01*
X108357142Y-116454819D02*
X108023809Y-115978628D01*
X107785714Y-116454819D02*
X107785714Y-115454819D01*
X107785714Y-115454819D02*
X108166666Y-115454819D01*
X108166666Y-115454819D02*
X108261904Y-115502438D01*
X108261904Y-115502438D02*
X108309523Y-115550057D01*
X108309523Y-115550057D02*
X108357142Y-115645295D01*
X108357142Y-115645295D02*
X108357142Y-115788152D01*
X108357142Y-115788152D02*
X108309523Y-115883390D01*
X108309523Y-115883390D02*
X108261904Y-115931009D01*
X108261904Y-115931009D02*
X108166666Y-115978628D01*
X108166666Y-115978628D02*
X107785714Y-115978628D01*
X108738095Y-115550057D02*
X108785714Y-115502438D01*
X108785714Y-115502438D02*
X108880952Y-115454819D01*
X108880952Y-115454819D02*
X109119047Y-115454819D01*
X109119047Y-115454819D02*
X109214285Y-115502438D01*
X109214285Y-115502438D02*
X109261904Y-115550057D01*
X109261904Y-115550057D02*
X109309523Y-115645295D01*
X109309523Y-115645295D02*
X109309523Y-115740533D01*
X109309523Y-115740533D02*
X109261904Y-115883390D01*
X109261904Y-115883390D02*
X108690476Y-116454819D01*
X108690476Y-116454819D02*
X109309523Y-116454819D01*
X109642857Y-115454819D02*
X110309523Y-115454819D01*
X110309523Y-115454819D02*
X109880952Y-116454819D01*
X103109580Y-106166666D02*
X103157200Y-106214285D01*
X103157200Y-106214285D02*
X103204819Y-106357142D01*
X103204819Y-106357142D02*
X103204819Y-106452380D01*
X103204819Y-106452380D02*
X103157200Y-106595237D01*
X103157200Y-106595237D02*
X103061961Y-106690475D01*
X103061961Y-106690475D02*
X102966723Y-106738094D01*
X102966723Y-106738094D02*
X102776247Y-106785713D01*
X102776247Y-106785713D02*
X102633390Y-106785713D01*
X102633390Y-106785713D02*
X102442914Y-106738094D01*
X102442914Y-106738094D02*
X102347676Y-106690475D01*
X102347676Y-106690475D02*
X102252438Y-106595237D01*
X102252438Y-106595237D02*
X102204819Y-106452380D01*
X102204819Y-106452380D02*
X102204819Y-106357142D01*
X102204819Y-106357142D02*
X102252438Y-106214285D01*
X102252438Y-106214285D02*
X102300057Y-106166666D01*
X102204819Y-105833332D02*
X102204819Y-105166666D01*
X102204819Y-105166666D02*
X103204819Y-105595237D01*
X107571905Y-110574819D02*
X107571905Y-109574819D01*
X107571905Y-109574819D02*
X107810000Y-109574819D01*
X107810000Y-109574819D02*
X107952857Y-109622438D01*
X107952857Y-109622438D02*
X108048095Y-109717676D01*
X108048095Y-109717676D02*
X108095714Y-109812914D01*
X108095714Y-109812914D02*
X108143333Y-110003390D01*
X108143333Y-110003390D02*
X108143333Y-110146247D01*
X108143333Y-110146247D02*
X108095714Y-110336723D01*
X108095714Y-110336723D02*
X108048095Y-110431961D01*
X108048095Y-110431961D02*
X107952857Y-110527200D01*
X107952857Y-110527200D02*
X107810000Y-110574819D01*
X107810000Y-110574819D02*
X107571905Y-110574819D01*
X109095714Y-110574819D02*
X108524286Y-110574819D01*
X108810000Y-110574819D02*
X108810000Y-109574819D01*
X108810000Y-109574819D02*
X108714762Y-109717676D01*
X108714762Y-109717676D02*
X108619524Y-109812914D01*
X108619524Y-109812914D02*
X108524286Y-109860533D01*
X111858095Y-110254819D02*
X111858095Y-109254819D01*
X112429523Y-110254819D02*
X112000952Y-109683390D01*
X112429523Y-109254819D02*
X111858095Y-109826247D01*
X139334819Y-71672857D02*
X138858628Y-72006190D01*
X139334819Y-72244285D02*
X138334819Y-72244285D01*
X138334819Y-72244285D02*
X138334819Y-71863333D01*
X138334819Y-71863333D02*
X138382438Y-71768095D01*
X138382438Y-71768095D02*
X138430057Y-71720476D01*
X138430057Y-71720476D02*
X138525295Y-71672857D01*
X138525295Y-71672857D02*
X138668152Y-71672857D01*
X138668152Y-71672857D02*
X138763390Y-71720476D01*
X138763390Y-71720476D02*
X138811009Y-71768095D01*
X138811009Y-71768095D02*
X138858628Y-71863333D01*
X138858628Y-71863333D02*
X138858628Y-72244285D01*
X138430057Y-71291904D02*
X138382438Y-71244285D01*
X138382438Y-71244285D02*
X138334819Y-71149047D01*
X138334819Y-71149047D02*
X138334819Y-70910952D01*
X138334819Y-70910952D02*
X138382438Y-70815714D01*
X138382438Y-70815714D02*
X138430057Y-70768095D01*
X138430057Y-70768095D02*
X138525295Y-70720476D01*
X138525295Y-70720476D02*
X138620533Y-70720476D01*
X138620533Y-70720476D02*
X138763390Y-70768095D01*
X138763390Y-70768095D02*
X139334819Y-71339523D01*
X139334819Y-71339523D02*
X139334819Y-70720476D01*
X139334819Y-69768095D02*
X139334819Y-70339523D01*
X139334819Y-70053809D02*
X138334819Y-70053809D01*
X138334819Y-70053809D02*
X138477676Y-70149047D01*
X138477676Y-70149047D02*
X138572914Y-70244285D01*
X138572914Y-70244285D02*
X138620533Y-70339523D01*
X133674761Y-101990057D02*
X133579523Y-101942438D01*
X133579523Y-101942438D02*
X133484285Y-101847200D01*
X133484285Y-101847200D02*
X133341428Y-101704342D01*
X133341428Y-101704342D02*
X133246190Y-101656723D01*
X133246190Y-101656723D02*
X133150952Y-101656723D01*
X133198571Y-101894819D02*
X133103333Y-101847200D01*
X133103333Y-101847200D02*
X133008095Y-101751961D01*
X133008095Y-101751961D02*
X132960476Y-101561485D01*
X132960476Y-101561485D02*
X132960476Y-101228152D01*
X132960476Y-101228152D02*
X133008095Y-101037676D01*
X133008095Y-101037676D02*
X133103333Y-100942438D01*
X133103333Y-100942438D02*
X133198571Y-100894819D01*
X133198571Y-100894819D02*
X133389047Y-100894819D01*
X133389047Y-100894819D02*
X133484285Y-100942438D01*
X133484285Y-100942438D02*
X133579523Y-101037676D01*
X133579523Y-101037676D02*
X133627142Y-101228152D01*
X133627142Y-101228152D02*
X133627142Y-101561485D01*
X133627142Y-101561485D02*
X133579523Y-101751961D01*
X133579523Y-101751961D02*
X133484285Y-101847200D01*
X133484285Y-101847200D02*
X133389047Y-101894819D01*
X133389047Y-101894819D02*
X133198571Y-101894819D01*
X134484285Y-101228152D02*
X134484285Y-101894819D01*
X134246190Y-100847200D02*
X134008095Y-101561485D01*
X134008095Y-101561485D02*
X134627142Y-101561485D01*
X120777142Y-97084819D02*
X120443809Y-96608628D01*
X120205714Y-97084819D02*
X120205714Y-96084819D01*
X120205714Y-96084819D02*
X120586666Y-96084819D01*
X120586666Y-96084819D02*
X120681904Y-96132438D01*
X120681904Y-96132438D02*
X120729523Y-96180057D01*
X120729523Y-96180057D02*
X120777142Y-96275295D01*
X120777142Y-96275295D02*
X120777142Y-96418152D01*
X120777142Y-96418152D02*
X120729523Y-96513390D01*
X120729523Y-96513390D02*
X120681904Y-96561009D01*
X120681904Y-96561009D02*
X120586666Y-96608628D01*
X120586666Y-96608628D02*
X120205714Y-96608628D01*
X121158095Y-96180057D02*
X121205714Y-96132438D01*
X121205714Y-96132438D02*
X121300952Y-96084819D01*
X121300952Y-96084819D02*
X121539047Y-96084819D01*
X121539047Y-96084819D02*
X121634285Y-96132438D01*
X121634285Y-96132438D02*
X121681904Y-96180057D01*
X121681904Y-96180057D02*
X121729523Y-96275295D01*
X121729523Y-96275295D02*
X121729523Y-96370533D01*
X121729523Y-96370533D02*
X121681904Y-96513390D01*
X121681904Y-96513390D02*
X121110476Y-97084819D01*
X121110476Y-97084819D02*
X121729523Y-97084819D01*
X122634285Y-96084819D02*
X122158095Y-96084819D01*
X122158095Y-96084819D02*
X122110476Y-96561009D01*
X122110476Y-96561009D02*
X122158095Y-96513390D01*
X122158095Y-96513390D02*
X122253333Y-96465771D01*
X122253333Y-96465771D02*
X122491428Y-96465771D01*
X122491428Y-96465771D02*
X122586666Y-96513390D01*
X122586666Y-96513390D02*
X122634285Y-96561009D01*
X122634285Y-96561009D02*
X122681904Y-96656247D01*
X122681904Y-96656247D02*
X122681904Y-96894342D01*
X122681904Y-96894342D02*
X122634285Y-96989580D01*
X122634285Y-96989580D02*
X122586666Y-97037200D01*
X122586666Y-97037200D02*
X122491428Y-97084819D01*
X122491428Y-97084819D02*
X122253333Y-97084819D01*
X122253333Y-97084819D02*
X122158095Y-97037200D01*
X122158095Y-97037200D02*
X122110476Y-96989580D01*
X130119048Y-113527200D02*
X130261905Y-113574819D01*
X130261905Y-113574819D02*
X130500000Y-113574819D01*
X130500000Y-113574819D02*
X130595238Y-113527200D01*
X130595238Y-113527200D02*
X130642857Y-113479580D01*
X130642857Y-113479580D02*
X130690476Y-113384342D01*
X130690476Y-113384342D02*
X130690476Y-113289104D01*
X130690476Y-113289104D02*
X130642857Y-113193866D01*
X130642857Y-113193866D02*
X130595238Y-113146247D01*
X130595238Y-113146247D02*
X130500000Y-113098628D01*
X130500000Y-113098628D02*
X130309524Y-113051009D01*
X130309524Y-113051009D02*
X130214286Y-113003390D01*
X130214286Y-113003390D02*
X130166667Y-112955771D01*
X130166667Y-112955771D02*
X130119048Y-112860533D01*
X130119048Y-112860533D02*
X130119048Y-112765295D01*
X130119048Y-112765295D02*
X130166667Y-112670057D01*
X130166667Y-112670057D02*
X130214286Y-112622438D01*
X130214286Y-112622438D02*
X130309524Y-112574819D01*
X130309524Y-112574819D02*
X130547619Y-112574819D01*
X130547619Y-112574819D02*
X130690476Y-112622438D01*
X131119048Y-113574819D02*
X131119048Y-112574819D01*
X131119048Y-112574819D02*
X131500000Y-112574819D01*
X131500000Y-112574819D02*
X131595238Y-112622438D01*
X131595238Y-112622438D02*
X131642857Y-112670057D01*
X131642857Y-112670057D02*
X131690476Y-112765295D01*
X131690476Y-112765295D02*
X131690476Y-112908152D01*
X131690476Y-112908152D02*
X131642857Y-113003390D01*
X131642857Y-113003390D02*
X131595238Y-113051009D01*
X131595238Y-113051009D02*
X131500000Y-113098628D01*
X131500000Y-113098628D02*
X131119048Y-113098628D01*
X132119048Y-113574819D02*
X132119048Y-112574819D01*
X132690476Y-113574819D02*
X132261905Y-113003390D01*
X132690476Y-112574819D02*
X132119048Y-113146247D01*
X133119048Y-113193866D02*
X133880953Y-113193866D01*
X133500000Y-113574819D02*
X133500000Y-112812914D01*
X134880952Y-113574819D02*
X134309524Y-113574819D01*
X134595238Y-113574819D02*
X134595238Y-112574819D01*
X134595238Y-112574819D02*
X134500000Y-112717676D01*
X134500000Y-112717676D02*
X134404762Y-112812914D01*
X134404762Y-112812914D02*
X134309524Y-112860533D01*
X186109580Y-115166666D02*
X186157200Y-115214285D01*
X186157200Y-115214285D02*
X186204819Y-115357142D01*
X186204819Y-115357142D02*
X186204819Y-115452380D01*
X186204819Y-115452380D02*
X186157200Y-115595237D01*
X186157200Y-115595237D02*
X186061961Y-115690475D01*
X186061961Y-115690475D02*
X185966723Y-115738094D01*
X185966723Y-115738094D02*
X185776247Y-115785713D01*
X185776247Y-115785713D02*
X185633390Y-115785713D01*
X185633390Y-115785713D02*
X185442914Y-115738094D01*
X185442914Y-115738094D02*
X185347676Y-115690475D01*
X185347676Y-115690475D02*
X185252438Y-115595237D01*
X185252438Y-115595237D02*
X185204819Y-115452380D01*
X185204819Y-115452380D02*
X185204819Y-115357142D01*
X185204819Y-115357142D02*
X185252438Y-115214285D01*
X185252438Y-115214285D02*
X185300057Y-115166666D01*
X185538152Y-114309523D02*
X186204819Y-114309523D01*
X185157200Y-114547618D02*
X185871485Y-114785713D01*
X185871485Y-114785713D02*
X185871485Y-114166666D01*
X147833333Y-119454819D02*
X147500000Y-118978628D01*
X147261905Y-119454819D02*
X147261905Y-118454819D01*
X147261905Y-118454819D02*
X147642857Y-118454819D01*
X147642857Y-118454819D02*
X147738095Y-118502438D01*
X147738095Y-118502438D02*
X147785714Y-118550057D01*
X147785714Y-118550057D02*
X147833333Y-118645295D01*
X147833333Y-118645295D02*
X147833333Y-118788152D01*
X147833333Y-118788152D02*
X147785714Y-118883390D01*
X147785714Y-118883390D02*
X147738095Y-118931009D01*
X147738095Y-118931009D02*
X147642857Y-118978628D01*
X147642857Y-118978628D02*
X147261905Y-118978628D01*
X148690476Y-118454819D02*
X148500000Y-118454819D01*
X148500000Y-118454819D02*
X148404762Y-118502438D01*
X148404762Y-118502438D02*
X148357143Y-118550057D01*
X148357143Y-118550057D02*
X148261905Y-118692914D01*
X148261905Y-118692914D02*
X148214286Y-118883390D01*
X148214286Y-118883390D02*
X148214286Y-119264342D01*
X148214286Y-119264342D02*
X148261905Y-119359580D01*
X148261905Y-119359580D02*
X148309524Y-119407200D01*
X148309524Y-119407200D02*
X148404762Y-119454819D01*
X148404762Y-119454819D02*
X148595238Y-119454819D01*
X148595238Y-119454819D02*
X148690476Y-119407200D01*
X148690476Y-119407200D02*
X148738095Y-119359580D01*
X148738095Y-119359580D02*
X148785714Y-119264342D01*
X148785714Y-119264342D02*
X148785714Y-119026247D01*
X148785714Y-119026247D02*
X148738095Y-118931009D01*
X148738095Y-118931009D02*
X148690476Y-118883390D01*
X148690476Y-118883390D02*
X148595238Y-118835771D01*
X148595238Y-118835771D02*
X148404762Y-118835771D01*
X148404762Y-118835771D02*
X148309524Y-118883390D01*
X148309524Y-118883390D02*
X148261905Y-118931009D01*
X148261905Y-118931009D02*
X148214286Y-119026247D01*
X130084819Y-95562857D02*
X129608628Y-95896190D01*
X130084819Y-96134285D02*
X129084819Y-96134285D01*
X129084819Y-96134285D02*
X129084819Y-95753333D01*
X129084819Y-95753333D02*
X129132438Y-95658095D01*
X129132438Y-95658095D02*
X129180057Y-95610476D01*
X129180057Y-95610476D02*
X129275295Y-95562857D01*
X129275295Y-95562857D02*
X129418152Y-95562857D01*
X129418152Y-95562857D02*
X129513390Y-95610476D01*
X129513390Y-95610476D02*
X129561009Y-95658095D01*
X129561009Y-95658095D02*
X129608628Y-95753333D01*
X129608628Y-95753333D02*
X129608628Y-96134285D01*
X130084819Y-94610476D02*
X130084819Y-95181904D01*
X130084819Y-94896190D02*
X129084819Y-94896190D01*
X129084819Y-94896190D02*
X129227676Y-94991428D01*
X129227676Y-94991428D02*
X129322914Y-95086666D01*
X129322914Y-95086666D02*
X129370533Y-95181904D01*
X129084819Y-93991428D02*
X129084819Y-93896190D01*
X129084819Y-93896190D02*
X129132438Y-93800952D01*
X129132438Y-93800952D02*
X129180057Y-93753333D01*
X129180057Y-93753333D02*
X129275295Y-93705714D01*
X129275295Y-93705714D02*
X129465771Y-93658095D01*
X129465771Y-93658095D02*
X129703866Y-93658095D01*
X129703866Y-93658095D02*
X129894342Y-93705714D01*
X129894342Y-93705714D02*
X129989580Y-93753333D01*
X129989580Y-93753333D02*
X130037200Y-93800952D01*
X130037200Y-93800952D02*
X130084819Y-93896190D01*
X130084819Y-93896190D02*
X130084819Y-93991428D01*
X130084819Y-93991428D02*
X130037200Y-94086666D01*
X130037200Y-94086666D02*
X129989580Y-94134285D01*
X129989580Y-94134285D02*
X129894342Y-94181904D01*
X129894342Y-94181904D02*
X129703866Y-94229523D01*
X129703866Y-94229523D02*
X129465771Y-94229523D01*
X129465771Y-94229523D02*
X129275295Y-94181904D01*
X129275295Y-94181904D02*
X129180057Y-94134285D01*
X129180057Y-94134285D02*
X129132438Y-94086666D01*
X129132438Y-94086666D02*
X129084819Y-93991428D01*
X116990057Y-114801428D02*
X116942438Y-114896666D01*
X116942438Y-114896666D02*
X116847200Y-114991904D01*
X116847200Y-114991904D02*
X116704342Y-115134761D01*
X116704342Y-115134761D02*
X116656723Y-115229999D01*
X116656723Y-115229999D02*
X116656723Y-115325237D01*
X116894819Y-115277618D02*
X116847200Y-115372856D01*
X116847200Y-115372856D02*
X116751961Y-115468094D01*
X116751961Y-115468094D02*
X116561485Y-115515713D01*
X116561485Y-115515713D02*
X116228152Y-115515713D01*
X116228152Y-115515713D02*
X116037676Y-115468094D01*
X116037676Y-115468094D02*
X115942438Y-115372856D01*
X115942438Y-115372856D02*
X115894819Y-115277618D01*
X115894819Y-115277618D02*
X115894819Y-115087142D01*
X115894819Y-115087142D02*
X115942438Y-114991904D01*
X115942438Y-114991904D02*
X116037676Y-114896666D01*
X116037676Y-114896666D02*
X116228152Y-114849047D01*
X116228152Y-114849047D02*
X116561485Y-114849047D01*
X116561485Y-114849047D02*
X116751961Y-114896666D01*
X116751961Y-114896666D02*
X116847200Y-114991904D01*
X116847200Y-114991904D02*
X116894819Y-115087142D01*
X116894819Y-115087142D02*
X116894819Y-115277618D01*
X116894819Y-113896666D02*
X116894819Y-114468094D01*
X116894819Y-114182380D02*
X115894819Y-114182380D01*
X115894819Y-114182380D02*
X116037676Y-114277618D01*
X116037676Y-114277618D02*
X116132914Y-114372856D01*
X116132914Y-114372856D02*
X116180533Y-114468094D01*
X116228152Y-113039523D02*
X116894819Y-113039523D01*
X115847200Y-113277618D02*
X116561485Y-113515713D01*
X116561485Y-113515713D02*
X116561485Y-112896666D01*
X172124761Y-107000057D02*
X172029523Y-106952438D01*
X172029523Y-106952438D02*
X171934285Y-106857200D01*
X171934285Y-106857200D02*
X171791428Y-106714342D01*
X171791428Y-106714342D02*
X171696190Y-106666723D01*
X171696190Y-106666723D02*
X171600952Y-106666723D01*
X171648571Y-106904819D02*
X171553333Y-106857200D01*
X171553333Y-106857200D02*
X171458095Y-106761961D01*
X171458095Y-106761961D02*
X171410476Y-106571485D01*
X171410476Y-106571485D02*
X171410476Y-106238152D01*
X171410476Y-106238152D02*
X171458095Y-106047676D01*
X171458095Y-106047676D02*
X171553333Y-105952438D01*
X171553333Y-105952438D02*
X171648571Y-105904819D01*
X171648571Y-105904819D02*
X171839047Y-105904819D01*
X171839047Y-105904819D02*
X171934285Y-105952438D01*
X171934285Y-105952438D02*
X172029523Y-106047676D01*
X172029523Y-106047676D02*
X172077142Y-106238152D01*
X172077142Y-106238152D02*
X172077142Y-106571485D01*
X172077142Y-106571485D02*
X172029523Y-106761961D01*
X172029523Y-106761961D02*
X171934285Y-106857200D01*
X171934285Y-106857200D02*
X171839047Y-106904819D01*
X171839047Y-106904819D02*
X171648571Y-106904819D01*
X172410476Y-105904819D02*
X173029523Y-105904819D01*
X173029523Y-105904819D02*
X172696190Y-106285771D01*
X172696190Y-106285771D02*
X172839047Y-106285771D01*
X172839047Y-106285771D02*
X172934285Y-106333390D01*
X172934285Y-106333390D02*
X172981904Y-106381009D01*
X172981904Y-106381009D02*
X173029523Y-106476247D01*
X173029523Y-106476247D02*
X173029523Y-106714342D01*
X173029523Y-106714342D02*
X172981904Y-106809580D01*
X172981904Y-106809580D02*
X172934285Y-106857200D01*
X172934285Y-106857200D02*
X172839047Y-106904819D01*
X172839047Y-106904819D02*
X172553333Y-106904819D01*
X172553333Y-106904819D02*
X172458095Y-106857200D01*
X172458095Y-106857200D02*
X172410476Y-106809580D01*
X118277142Y-121824819D02*
X117943809Y-121348628D01*
X117705714Y-121824819D02*
X117705714Y-120824819D01*
X117705714Y-120824819D02*
X118086666Y-120824819D01*
X118086666Y-120824819D02*
X118181904Y-120872438D01*
X118181904Y-120872438D02*
X118229523Y-120920057D01*
X118229523Y-120920057D02*
X118277142Y-121015295D01*
X118277142Y-121015295D02*
X118277142Y-121158152D01*
X118277142Y-121158152D02*
X118229523Y-121253390D01*
X118229523Y-121253390D02*
X118181904Y-121301009D01*
X118181904Y-121301009D02*
X118086666Y-121348628D01*
X118086666Y-121348628D02*
X117705714Y-121348628D01*
X118658095Y-120920057D02*
X118705714Y-120872438D01*
X118705714Y-120872438D02*
X118800952Y-120824819D01*
X118800952Y-120824819D02*
X119039047Y-120824819D01*
X119039047Y-120824819D02*
X119134285Y-120872438D01*
X119134285Y-120872438D02*
X119181904Y-120920057D01*
X119181904Y-120920057D02*
X119229523Y-121015295D01*
X119229523Y-121015295D02*
X119229523Y-121110533D01*
X119229523Y-121110533D02*
X119181904Y-121253390D01*
X119181904Y-121253390D02*
X118610476Y-121824819D01*
X118610476Y-121824819D02*
X119229523Y-121824819D01*
X119610476Y-120920057D02*
X119658095Y-120872438D01*
X119658095Y-120872438D02*
X119753333Y-120824819D01*
X119753333Y-120824819D02*
X119991428Y-120824819D01*
X119991428Y-120824819D02*
X120086666Y-120872438D01*
X120086666Y-120872438D02*
X120134285Y-120920057D01*
X120134285Y-120920057D02*
X120181904Y-121015295D01*
X120181904Y-121015295D02*
X120181904Y-121110533D01*
X120181904Y-121110533D02*
X120134285Y-121253390D01*
X120134285Y-121253390D02*
X119562857Y-121824819D01*
X119562857Y-121824819D02*
X120181904Y-121824819D01*
X151952381Y-107074819D02*
X151952381Y-106074819D01*
X152428571Y-106408152D02*
X152428571Y-107074819D01*
X152428571Y-106503390D02*
X152476190Y-106455771D01*
X152476190Y-106455771D02*
X152571428Y-106408152D01*
X152571428Y-106408152D02*
X152714285Y-106408152D01*
X152714285Y-106408152D02*
X152809523Y-106455771D01*
X152809523Y-106455771D02*
X152857142Y-106551009D01*
X152857142Y-106551009D02*
X152857142Y-107074819D01*
X153333333Y-106693866D02*
X154095238Y-106693866D01*
X153714285Y-107074819D02*
X153714285Y-106312914D01*
X155095237Y-107074819D02*
X154523809Y-107074819D01*
X154809523Y-107074819D02*
X154809523Y-106074819D01*
X154809523Y-106074819D02*
X154714285Y-106217676D01*
X154714285Y-106217676D02*
X154619047Y-106312914D01*
X154619047Y-106312914D02*
X154523809Y-106360533D01*
X121190476Y-99709819D02*
X121523809Y-100709819D01*
X121523809Y-100709819D02*
X121857142Y-99709819D01*
X122761904Y-100709819D02*
X122428571Y-100233628D01*
X122190476Y-100709819D02*
X122190476Y-99709819D01*
X122190476Y-99709819D02*
X122571428Y-99709819D01*
X122571428Y-99709819D02*
X122666666Y-99757438D01*
X122666666Y-99757438D02*
X122714285Y-99805057D01*
X122714285Y-99805057D02*
X122761904Y-99900295D01*
X122761904Y-99900295D02*
X122761904Y-100043152D01*
X122761904Y-100043152D02*
X122714285Y-100138390D01*
X122714285Y-100138390D02*
X122666666Y-100186009D01*
X122666666Y-100186009D02*
X122571428Y-100233628D01*
X122571428Y-100233628D02*
X122190476Y-100233628D01*
X123714285Y-100709819D02*
X123142857Y-100709819D01*
X123428571Y-100709819D02*
X123428571Y-99709819D01*
X123428571Y-99709819D02*
X123333333Y-99852676D01*
X123333333Y-99852676D02*
X123238095Y-99947914D01*
X123238095Y-99947914D02*
X123142857Y-99995533D01*
X146334819Y-95428094D02*
X145334819Y-95428094D01*
X145334819Y-95428094D02*
X145334819Y-95189999D01*
X145334819Y-95189999D02*
X145382438Y-95047142D01*
X145382438Y-95047142D02*
X145477676Y-94951904D01*
X145477676Y-94951904D02*
X145572914Y-94904285D01*
X145572914Y-94904285D02*
X145763390Y-94856666D01*
X145763390Y-94856666D02*
X145906247Y-94856666D01*
X145906247Y-94856666D02*
X146096723Y-94904285D01*
X146096723Y-94904285D02*
X146191961Y-94951904D01*
X146191961Y-94951904D02*
X146287200Y-95047142D01*
X146287200Y-95047142D02*
X146334819Y-95189999D01*
X146334819Y-95189999D02*
X146334819Y-95428094D01*
X145668152Y-93999523D02*
X146334819Y-93999523D01*
X145287200Y-94237618D02*
X146001485Y-94475713D01*
X146001485Y-94475713D02*
X146001485Y-93856666D01*
X146654819Y-98761904D02*
X145654819Y-98761904D01*
X146654819Y-98190476D02*
X146083390Y-98619047D01*
X145654819Y-98190476D02*
X146226247Y-98761904D01*
X175333333Y-107359580D02*
X175285714Y-107407200D01*
X175285714Y-107407200D02*
X175142857Y-107454819D01*
X175142857Y-107454819D02*
X175047619Y-107454819D01*
X175047619Y-107454819D02*
X174904762Y-107407200D01*
X174904762Y-107407200D02*
X174809524Y-107311961D01*
X174809524Y-107311961D02*
X174761905Y-107216723D01*
X174761905Y-107216723D02*
X174714286Y-107026247D01*
X174714286Y-107026247D02*
X174714286Y-106883390D01*
X174714286Y-106883390D02*
X174761905Y-106692914D01*
X174761905Y-106692914D02*
X174809524Y-106597676D01*
X174809524Y-106597676D02*
X174904762Y-106502438D01*
X174904762Y-106502438D02*
X175047619Y-106454819D01*
X175047619Y-106454819D02*
X175142857Y-106454819D01*
X175142857Y-106454819D02*
X175285714Y-106502438D01*
X175285714Y-106502438D02*
X175333333Y-106550057D01*
X175714286Y-106550057D02*
X175761905Y-106502438D01*
X175761905Y-106502438D02*
X175857143Y-106454819D01*
X175857143Y-106454819D02*
X176095238Y-106454819D01*
X176095238Y-106454819D02*
X176190476Y-106502438D01*
X176190476Y-106502438D02*
X176238095Y-106550057D01*
X176238095Y-106550057D02*
X176285714Y-106645295D01*
X176285714Y-106645295D02*
X176285714Y-106740533D01*
X176285714Y-106740533D02*
X176238095Y-106883390D01*
X176238095Y-106883390D02*
X175666667Y-107454819D01*
X175666667Y-107454819D02*
X176285714Y-107454819D01*
X196431009Y-105183333D02*
X196431009Y-105516666D01*
X196954819Y-105516666D02*
X195954819Y-105516666D01*
X195954819Y-105516666D02*
X195954819Y-105040476D01*
X196954819Y-104135714D02*
X196954819Y-104707142D01*
X196954819Y-104421428D02*
X195954819Y-104421428D01*
X195954819Y-104421428D02*
X196097676Y-104516666D01*
X196097676Y-104516666D02*
X196192914Y-104611904D01*
X196192914Y-104611904D02*
X196240533Y-104707142D01*
X139584819Y-96142857D02*
X139108628Y-96476190D01*
X139584819Y-96714285D02*
X138584819Y-96714285D01*
X138584819Y-96714285D02*
X138584819Y-96333333D01*
X138584819Y-96333333D02*
X138632438Y-96238095D01*
X138632438Y-96238095D02*
X138680057Y-96190476D01*
X138680057Y-96190476D02*
X138775295Y-96142857D01*
X138775295Y-96142857D02*
X138918152Y-96142857D01*
X138918152Y-96142857D02*
X139013390Y-96190476D01*
X139013390Y-96190476D02*
X139061009Y-96238095D01*
X139061009Y-96238095D02*
X139108628Y-96333333D01*
X139108628Y-96333333D02*
X139108628Y-96714285D01*
X139584819Y-95190476D02*
X139584819Y-95761904D01*
X139584819Y-95476190D02*
X138584819Y-95476190D01*
X138584819Y-95476190D02*
X138727676Y-95571428D01*
X138727676Y-95571428D02*
X138822914Y-95666666D01*
X138822914Y-95666666D02*
X138870533Y-95761904D01*
X138680057Y-94809523D02*
X138632438Y-94761904D01*
X138632438Y-94761904D02*
X138584819Y-94666666D01*
X138584819Y-94666666D02*
X138584819Y-94428571D01*
X138584819Y-94428571D02*
X138632438Y-94333333D01*
X138632438Y-94333333D02*
X138680057Y-94285714D01*
X138680057Y-94285714D02*
X138775295Y-94238095D01*
X138775295Y-94238095D02*
X138870533Y-94238095D01*
X138870533Y-94238095D02*
X139013390Y-94285714D01*
X139013390Y-94285714D02*
X139584819Y-94857142D01*
X139584819Y-94857142D02*
X139584819Y-94238095D01*
X105833333Y-111954819D02*
X105500000Y-111478628D01*
X105261905Y-111954819D02*
X105261905Y-110954819D01*
X105261905Y-110954819D02*
X105642857Y-110954819D01*
X105642857Y-110954819D02*
X105738095Y-111002438D01*
X105738095Y-111002438D02*
X105785714Y-111050057D01*
X105785714Y-111050057D02*
X105833333Y-111145295D01*
X105833333Y-111145295D02*
X105833333Y-111288152D01*
X105833333Y-111288152D02*
X105785714Y-111383390D01*
X105785714Y-111383390D02*
X105738095Y-111431009D01*
X105738095Y-111431009D02*
X105642857Y-111478628D01*
X105642857Y-111478628D02*
X105261905Y-111478628D01*
X106166667Y-110954819D02*
X106785714Y-110954819D01*
X106785714Y-110954819D02*
X106452381Y-111335771D01*
X106452381Y-111335771D02*
X106595238Y-111335771D01*
X106595238Y-111335771D02*
X106690476Y-111383390D01*
X106690476Y-111383390D02*
X106738095Y-111431009D01*
X106738095Y-111431009D02*
X106785714Y-111526247D01*
X106785714Y-111526247D02*
X106785714Y-111764342D01*
X106785714Y-111764342D02*
X106738095Y-111859580D01*
X106738095Y-111859580D02*
X106690476Y-111907200D01*
X106690476Y-111907200D02*
X106595238Y-111954819D01*
X106595238Y-111954819D02*
X106309524Y-111954819D01*
X106309524Y-111954819D02*
X106214286Y-111907200D01*
X106214286Y-111907200D02*
X106166667Y-111859580D01*
X196574819Y-86238094D02*
X195574819Y-86238094D01*
X195574819Y-86238094D02*
X195574819Y-85999999D01*
X195574819Y-85999999D02*
X195622438Y-85857142D01*
X195622438Y-85857142D02*
X195717676Y-85761904D01*
X195717676Y-85761904D02*
X195812914Y-85714285D01*
X195812914Y-85714285D02*
X196003390Y-85666666D01*
X196003390Y-85666666D02*
X196146247Y-85666666D01*
X196146247Y-85666666D02*
X196336723Y-85714285D01*
X196336723Y-85714285D02*
X196431961Y-85761904D01*
X196431961Y-85761904D02*
X196527200Y-85857142D01*
X196527200Y-85857142D02*
X196574819Y-85999999D01*
X196574819Y-85999999D02*
X196574819Y-86238094D01*
X195574819Y-84809523D02*
X195574819Y-84999999D01*
X195574819Y-84999999D02*
X195622438Y-85095237D01*
X195622438Y-85095237D02*
X195670057Y-85142856D01*
X195670057Y-85142856D02*
X195812914Y-85238094D01*
X195812914Y-85238094D02*
X196003390Y-85285713D01*
X196003390Y-85285713D02*
X196384342Y-85285713D01*
X196384342Y-85285713D02*
X196479580Y-85238094D01*
X196479580Y-85238094D02*
X196527200Y-85190475D01*
X196527200Y-85190475D02*
X196574819Y-85095237D01*
X196574819Y-85095237D02*
X196574819Y-84904761D01*
X196574819Y-84904761D02*
X196527200Y-84809523D01*
X196527200Y-84809523D02*
X196479580Y-84761904D01*
X196479580Y-84761904D02*
X196384342Y-84714285D01*
X196384342Y-84714285D02*
X196146247Y-84714285D01*
X196146247Y-84714285D02*
X196051009Y-84761904D01*
X196051009Y-84761904D02*
X196003390Y-84809523D01*
X196003390Y-84809523D02*
X195955771Y-84904761D01*
X195955771Y-84904761D02*
X195955771Y-85095237D01*
X195955771Y-85095237D02*
X196003390Y-85190475D01*
X196003390Y-85190475D02*
X196051009Y-85238094D01*
X196051009Y-85238094D02*
X196146247Y-85285713D01*
X196254819Y-81951904D02*
X195254819Y-81951904D01*
X196254819Y-81380476D02*
X195683390Y-81809047D01*
X195254819Y-81380476D02*
X195826247Y-81951904D01*
X150777142Y-117454819D02*
X150443809Y-116978628D01*
X150205714Y-117454819D02*
X150205714Y-116454819D01*
X150205714Y-116454819D02*
X150586666Y-116454819D01*
X150586666Y-116454819D02*
X150681904Y-116502438D01*
X150681904Y-116502438D02*
X150729523Y-116550057D01*
X150729523Y-116550057D02*
X150777142Y-116645295D01*
X150777142Y-116645295D02*
X150777142Y-116788152D01*
X150777142Y-116788152D02*
X150729523Y-116883390D01*
X150729523Y-116883390D02*
X150681904Y-116931009D01*
X150681904Y-116931009D02*
X150586666Y-116978628D01*
X150586666Y-116978628D02*
X150205714Y-116978628D01*
X151158095Y-116550057D02*
X151205714Y-116502438D01*
X151205714Y-116502438D02*
X151300952Y-116454819D01*
X151300952Y-116454819D02*
X151539047Y-116454819D01*
X151539047Y-116454819D02*
X151634285Y-116502438D01*
X151634285Y-116502438D02*
X151681904Y-116550057D01*
X151681904Y-116550057D02*
X151729523Y-116645295D01*
X151729523Y-116645295D02*
X151729523Y-116740533D01*
X151729523Y-116740533D02*
X151681904Y-116883390D01*
X151681904Y-116883390D02*
X151110476Y-117454819D01*
X151110476Y-117454819D02*
X151729523Y-117454819D01*
X152062857Y-116454819D02*
X152681904Y-116454819D01*
X152681904Y-116454819D02*
X152348571Y-116835771D01*
X152348571Y-116835771D02*
X152491428Y-116835771D01*
X152491428Y-116835771D02*
X152586666Y-116883390D01*
X152586666Y-116883390D02*
X152634285Y-116931009D01*
X152634285Y-116931009D02*
X152681904Y-117026247D01*
X152681904Y-117026247D02*
X152681904Y-117264342D01*
X152681904Y-117264342D02*
X152634285Y-117359580D01*
X152634285Y-117359580D02*
X152586666Y-117407200D01*
X152586666Y-117407200D02*
X152491428Y-117454819D01*
X152491428Y-117454819D02*
X152205714Y-117454819D01*
X152205714Y-117454819D02*
X152110476Y-117407200D01*
X152110476Y-117407200D02*
X152062857Y-117359580D01*
X90931009Y-106333333D02*
X90931009Y-106666666D01*
X91454819Y-106666666D02*
X90454819Y-106666666D01*
X90454819Y-106666666D02*
X90454819Y-106190476D01*
X90550057Y-105857142D02*
X90502438Y-105809523D01*
X90502438Y-105809523D02*
X90454819Y-105714285D01*
X90454819Y-105714285D02*
X90454819Y-105476190D01*
X90454819Y-105476190D02*
X90502438Y-105380952D01*
X90502438Y-105380952D02*
X90550057Y-105333333D01*
X90550057Y-105333333D02*
X90645295Y-105285714D01*
X90645295Y-105285714D02*
X90740533Y-105285714D01*
X90740533Y-105285714D02*
X90883390Y-105333333D01*
X90883390Y-105333333D02*
X91454819Y-105904761D01*
X91454819Y-105904761D02*
X91454819Y-105285714D01*
X121990057Y-114801428D02*
X121942438Y-114896666D01*
X121942438Y-114896666D02*
X121847200Y-114991904D01*
X121847200Y-114991904D02*
X121704342Y-115134761D01*
X121704342Y-115134761D02*
X121656723Y-115229999D01*
X121656723Y-115229999D02*
X121656723Y-115325237D01*
X121894819Y-115277618D02*
X121847200Y-115372856D01*
X121847200Y-115372856D02*
X121751961Y-115468094D01*
X121751961Y-115468094D02*
X121561485Y-115515713D01*
X121561485Y-115515713D02*
X121228152Y-115515713D01*
X121228152Y-115515713D02*
X121037676Y-115468094D01*
X121037676Y-115468094D02*
X120942438Y-115372856D01*
X120942438Y-115372856D02*
X120894819Y-115277618D01*
X120894819Y-115277618D02*
X120894819Y-115087142D01*
X120894819Y-115087142D02*
X120942438Y-114991904D01*
X120942438Y-114991904D02*
X121037676Y-114896666D01*
X121037676Y-114896666D02*
X121228152Y-114849047D01*
X121228152Y-114849047D02*
X121561485Y-114849047D01*
X121561485Y-114849047D02*
X121751961Y-114896666D01*
X121751961Y-114896666D02*
X121847200Y-114991904D01*
X121847200Y-114991904D02*
X121894819Y-115087142D01*
X121894819Y-115087142D02*
X121894819Y-115277618D01*
X121894819Y-113896666D02*
X121894819Y-114468094D01*
X121894819Y-114182380D02*
X120894819Y-114182380D01*
X120894819Y-114182380D02*
X121037676Y-114277618D01*
X121037676Y-114277618D02*
X121132914Y-114372856D01*
X121132914Y-114372856D02*
X121180533Y-114468094D01*
X120894819Y-113563332D02*
X120894819Y-112944285D01*
X120894819Y-112944285D02*
X121275771Y-113277618D01*
X121275771Y-113277618D02*
X121275771Y-113134761D01*
X121275771Y-113134761D02*
X121323390Y-113039523D01*
X121323390Y-113039523D02*
X121371009Y-112991904D01*
X121371009Y-112991904D02*
X121466247Y-112944285D01*
X121466247Y-112944285D02*
X121704342Y-112944285D01*
X121704342Y-112944285D02*
X121799580Y-112991904D01*
X121799580Y-112991904D02*
X121847200Y-113039523D01*
X121847200Y-113039523D02*
X121894819Y-113134761D01*
X121894819Y-113134761D02*
X121894819Y-113420475D01*
X121894819Y-113420475D02*
X121847200Y-113515713D01*
X121847200Y-113515713D02*
X121799580Y-113563332D01*
X168824819Y-108436666D02*
X168348628Y-108769999D01*
X168824819Y-109008094D02*
X167824819Y-109008094D01*
X167824819Y-109008094D02*
X167824819Y-108627142D01*
X167824819Y-108627142D02*
X167872438Y-108531904D01*
X167872438Y-108531904D02*
X167920057Y-108484285D01*
X167920057Y-108484285D02*
X168015295Y-108436666D01*
X168015295Y-108436666D02*
X168158152Y-108436666D01*
X168158152Y-108436666D02*
X168253390Y-108484285D01*
X168253390Y-108484285D02*
X168301009Y-108531904D01*
X168301009Y-108531904D02*
X168348628Y-108627142D01*
X168348628Y-108627142D02*
X168348628Y-109008094D01*
X168824819Y-107484285D02*
X168824819Y-108055713D01*
X168824819Y-107769999D02*
X167824819Y-107769999D01*
X167824819Y-107769999D02*
X167967676Y-107865237D01*
X167967676Y-107865237D02*
X168062914Y-107960475D01*
X168062914Y-107960475D02*
X168110533Y-108055713D01*
X105583333Y-121409580D02*
X105535714Y-121457200D01*
X105535714Y-121457200D02*
X105392857Y-121504819D01*
X105392857Y-121504819D02*
X105297619Y-121504819D01*
X105297619Y-121504819D02*
X105154762Y-121457200D01*
X105154762Y-121457200D02*
X105059524Y-121361961D01*
X105059524Y-121361961D02*
X105011905Y-121266723D01*
X105011905Y-121266723D02*
X104964286Y-121076247D01*
X104964286Y-121076247D02*
X104964286Y-120933390D01*
X104964286Y-120933390D02*
X105011905Y-120742914D01*
X105011905Y-120742914D02*
X105059524Y-120647676D01*
X105059524Y-120647676D02*
X105154762Y-120552438D01*
X105154762Y-120552438D02*
X105297619Y-120504819D01*
X105297619Y-120504819D02*
X105392857Y-120504819D01*
X105392857Y-120504819D02*
X105535714Y-120552438D01*
X105535714Y-120552438D02*
X105583333Y-120600057D01*
X106154762Y-120933390D02*
X106059524Y-120885771D01*
X106059524Y-120885771D02*
X106011905Y-120838152D01*
X106011905Y-120838152D02*
X105964286Y-120742914D01*
X105964286Y-120742914D02*
X105964286Y-120695295D01*
X105964286Y-120695295D02*
X106011905Y-120600057D01*
X106011905Y-120600057D02*
X106059524Y-120552438D01*
X106059524Y-120552438D02*
X106154762Y-120504819D01*
X106154762Y-120504819D02*
X106345238Y-120504819D01*
X106345238Y-120504819D02*
X106440476Y-120552438D01*
X106440476Y-120552438D02*
X106488095Y-120600057D01*
X106488095Y-120600057D02*
X106535714Y-120695295D01*
X106535714Y-120695295D02*
X106535714Y-120742914D01*
X106535714Y-120742914D02*
X106488095Y-120838152D01*
X106488095Y-120838152D02*
X106440476Y-120885771D01*
X106440476Y-120885771D02*
X106345238Y-120933390D01*
X106345238Y-120933390D02*
X106154762Y-120933390D01*
X106154762Y-120933390D02*
X106059524Y-120981009D01*
X106059524Y-120981009D02*
X106011905Y-121028628D01*
X106011905Y-121028628D02*
X105964286Y-121123866D01*
X105964286Y-121123866D02*
X105964286Y-121314342D01*
X105964286Y-121314342D02*
X106011905Y-121409580D01*
X106011905Y-121409580D02*
X106059524Y-121457200D01*
X106059524Y-121457200D02*
X106154762Y-121504819D01*
X106154762Y-121504819D02*
X106345238Y-121504819D01*
X106345238Y-121504819D02*
X106440476Y-121457200D01*
X106440476Y-121457200D02*
X106488095Y-121409580D01*
X106488095Y-121409580D02*
X106535714Y-121314342D01*
X106535714Y-121314342D02*
X106535714Y-121123866D01*
X106535714Y-121123866D02*
X106488095Y-121028628D01*
X106488095Y-121028628D02*
X106440476Y-120981009D01*
X106440476Y-120981009D02*
X106345238Y-120933390D01*
X156952381Y-107074819D02*
X156952381Y-106074819D01*
X157428571Y-106408152D02*
X157428571Y-107074819D01*
X157428571Y-106503390D02*
X157476190Y-106455771D01*
X157476190Y-106455771D02*
X157571428Y-106408152D01*
X157571428Y-106408152D02*
X157714285Y-106408152D01*
X157714285Y-106408152D02*
X157809523Y-106455771D01*
X157809523Y-106455771D02*
X157857142Y-106551009D01*
X157857142Y-106551009D02*
X157857142Y-107074819D01*
X158333333Y-106693866D02*
X159095238Y-106693866D01*
X160095237Y-107074819D02*
X159523809Y-107074819D01*
X159809523Y-107074819D02*
X159809523Y-106074819D01*
X159809523Y-106074819D02*
X159714285Y-106217676D01*
X159714285Y-106217676D02*
X159619047Y-106312914D01*
X159619047Y-106312914D02*
X159523809Y-106360533D01*
X180110057Y-114325238D02*
X180062438Y-114420476D01*
X180062438Y-114420476D02*
X179967200Y-114515714D01*
X179967200Y-114515714D02*
X179824342Y-114658571D01*
X179824342Y-114658571D02*
X179776723Y-114753809D01*
X179776723Y-114753809D02*
X179776723Y-114849047D01*
X180014819Y-114801428D02*
X179967200Y-114896666D01*
X179967200Y-114896666D02*
X179871961Y-114991904D01*
X179871961Y-114991904D02*
X179681485Y-115039523D01*
X179681485Y-115039523D02*
X179348152Y-115039523D01*
X179348152Y-115039523D02*
X179157676Y-114991904D01*
X179157676Y-114991904D02*
X179062438Y-114896666D01*
X179062438Y-114896666D02*
X179014819Y-114801428D01*
X179014819Y-114801428D02*
X179014819Y-114610952D01*
X179014819Y-114610952D02*
X179062438Y-114515714D01*
X179062438Y-114515714D02*
X179157676Y-114420476D01*
X179157676Y-114420476D02*
X179348152Y-114372857D01*
X179348152Y-114372857D02*
X179681485Y-114372857D01*
X179681485Y-114372857D02*
X179871961Y-114420476D01*
X179871961Y-114420476D02*
X179967200Y-114515714D01*
X179967200Y-114515714D02*
X180014819Y-114610952D01*
X180014819Y-114610952D02*
X180014819Y-114801428D01*
X179110057Y-113991904D02*
X179062438Y-113944285D01*
X179062438Y-113944285D02*
X179014819Y-113849047D01*
X179014819Y-113849047D02*
X179014819Y-113610952D01*
X179014819Y-113610952D02*
X179062438Y-113515714D01*
X179062438Y-113515714D02*
X179110057Y-113468095D01*
X179110057Y-113468095D02*
X179205295Y-113420476D01*
X179205295Y-113420476D02*
X179300533Y-113420476D01*
X179300533Y-113420476D02*
X179443390Y-113468095D01*
X179443390Y-113468095D02*
X180014819Y-114039523D01*
X180014819Y-114039523D02*
X180014819Y-113420476D01*
X194324819Y-86722857D02*
X193848628Y-87056190D01*
X194324819Y-87294285D02*
X193324819Y-87294285D01*
X193324819Y-87294285D02*
X193324819Y-86913333D01*
X193324819Y-86913333D02*
X193372438Y-86818095D01*
X193372438Y-86818095D02*
X193420057Y-86770476D01*
X193420057Y-86770476D02*
X193515295Y-86722857D01*
X193515295Y-86722857D02*
X193658152Y-86722857D01*
X193658152Y-86722857D02*
X193753390Y-86770476D01*
X193753390Y-86770476D02*
X193801009Y-86818095D01*
X193801009Y-86818095D02*
X193848628Y-86913333D01*
X193848628Y-86913333D02*
X193848628Y-87294285D01*
X194324819Y-85770476D02*
X194324819Y-86341904D01*
X194324819Y-86056190D02*
X193324819Y-86056190D01*
X193324819Y-86056190D02*
X193467676Y-86151428D01*
X193467676Y-86151428D02*
X193562914Y-86246666D01*
X193562914Y-86246666D02*
X193610533Y-86341904D01*
X193324819Y-84865714D02*
X193324819Y-85341904D01*
X193324819Y-85341904D02*
X193801009Y-85389523D01*
X193801009Y-85389523D02*
X193753390Y-85341904D01*
X193753390Y-85341904D02*
X193705771Y-85246666D01*
X193705771Y-85246666D02*
X193705771Y-85008571D01*
X193705771Y-85008571D02*
X193753390Y-84913333D01*
X193753390Y-84913333D02*
X193801009Y-84865714D01*
X193801009Y-84865714D02*
X193896247Y-84818095D01*
X193896247Y-84818095D02*
X194134342Y-84818095D01*
X194134342Y-84818095D02*
X194229580Y-84865714D01*
X194229580Y-84865714D02*
X194277200Y-84913333D01*
X194277200Y-84913333D02*
X194324819Y-85008571D01*
X194324819Y-85008571D02*
X194324819Y-85246666D01*
X194324819Y-85246666D02*
X194277200Y-85341904D01*
X194277200Y-85341904D02*
X194229580Y-85389523D01*
X126124761Y-86550057D02*
X126029523Y-86502438D01*
X126029523Y-86502438D02*
X125934285Y-86407200D01*
X125934285Y-86407200D02*
X125791428Y-86264342D01*
X125791428Y-86264342D02*
X125696190Y-86216723D01*
X125696190Y-86216723D02*
X125600952Y-86216723D01*
X125648571Y-86454819D02*
X125553333Y-86407200D01*
X125553333Y-86407200D02*
X125458095Y-86311961D01*
X125458095Y-86311961D02*
X125410476Y-86121485D01*
X125410476Y-86121485D02*
X125410476Y-85788152D01*
X125410476Y-85788152D02*
X125458095Y-85597676D01*
X125458095Y-85597676D02*
X125553333Y-85502438D01*
X125553333Y-85502438D02*
X125648571Y-85454819D01*
X125648571Y-85454819D02*
X125839047Y-85454819D01*
X125839047Y-85454819D02*
X125934285Y-85502438D01*
X125934285Y-85502438D02*
X126029523Y-85597676D01*
X126029523Y-85597676D02*
X126077142Y-85788152D01*
X126077142Y-85788152D02*
X126077142Y-86121485D01*
X126077142Y-86121485D02*
X126029523Y-86311961D01*
X126029523Y-86311961D02*
X125934285Y-86407200D01*
X125934285Y-86407200D02*
X125839047Y-86454819D01*
X125839047Y-86454819D02*
X125648571Y-86454819D01*
X126934285Y-85454819D02*
X126743809Y-85454819D01*
X126743809Y-85454819D02*
X126648571Y-85502438D01*
X126648571Y-85502438D02*
X126600952Y-85550057D01*
X126600952Y-85550057D02*
X126505714Y-85692914D01*
X126505714Y-85692914D02*
X126458095Y-85883390D01*
X126458095Y-85883390D02*
X126458095Y-86264342D01*
X126458095Y-86264342D02*
X126505714Y-86359580D01*
X126505714Y-86359580D02*
X126553333Y-86407200D01*
X126553333Y-86407200D02*
X126648571Y-86454819D01*
X126648571Y-86454819D02*
X126839047Y-86454819D01*
X126839047Y-86454819D02*
X126934285Y-86407200D01*
X126934285Y-86407200D02*
X126981904Y-86359580D01*
X126981904Y-86359580D02*
X127029523Y-86264342D01*
X127029523Y-86264342D02*
X127029523Y-86026247D01*
X127029523Y-86026247D02*
X126981904Y-85931009D01*
X126981904Y-85931009D02*
X126934285Y-85883390D01*
X126934285Y-85883390D02*
X126839047Y-85835771D01*
X126839047Y-85835771D02*
X126648571Y-85835771D01*
X126648571Y-85835771D02*
X126553333Y-85883390D01*
X126553333Y-85883390D02*
X126505714Y-85931009D01*
X126505714Y-85931009D02*
X126458095Y-86026247D01*
X140574819Y-71612857D02*
X140098628Y-71946190D01*
X140574819Y-72184285D02*
X139574819Y-72184285D01*
X139574819Y-72184285D02*
X139574819Y-71803333D01*
X139574819Y-71803333D02*
X139622438Y-71708095D01*
X139622438Y-71708095D02*
X139670057Y-71660476D01*
X139670057Y-71660476D02*
X139765295Y-71612857D01*
X139765295Y-71612857D02*
X139908152Y-71612857D01*
X139908152Y-71612857D02*
X140003390Y-71660476D01*
X140003390Y-71660476D02*
X140051009Y-71708095D01*
X140051009Y-71708095D02*
X140098628Y-71803333D01*
X140098628Y-71803333D02*
X140098628Y-72184285D01*
X139670057Y-71231904D02*
X139622438Y-71184285D01*
X139622438Y-71184285D02*
X139574819Y-71089047D01*
X139574819Y-71089047D02*
X139574819Y-70850952D01*
X139574819Y-70850952D02*
X139622438Y-70755714D01*
X139622438Y-70755714D02*
X139670057Y-70708095D01*
X139670057Y-70708095D02*
X139765295Y-70660476D01*
X139765295Y-70660476D02*
X139860533Y-70660476D01*
X139860533Y-70660476D02*
X140003390Y-70708095D01*
X140003390Y-70708095D02*
X140574819Y-71279523D01*
X140574819Y-71279523D02*
X140574819Y-70660476D01*
X139574819Y-70041428D02*
X139574819Y-69946190D01*
X139574819Y-69946190D02*
X139622438Y-69850952D01*
X139622438Y-69850952D02*
X139670057Y-69803333D01*
X139670057Y-69803333D02*
X139765295Y-69755714D01*
X139765295Y-69755714D02*
X139955771Y-69708095D01*
X139955771Y-69708095D02*
X140193866Y-69708095D01*
X140193866Y-69708095D02*
X140384342Y-69755714D01*
X140384342Y-69755714D02*
X140479580Y-69803333D01*
X140479580Y-69803333D02*
X140527200Y-69850952D01*
X140527200Y-69850952D02*
X140574819Y-69946190D01*
X140574819Y-69946190D02*
X140574819Y-70041428D01*
X140574819Y-70041428D02*
X140527200Y-70136666D01*
X140527200Y-70136666D02*
X140479580Y-70184285D01*
X140479580Y-70184285D02*
X140384342Y-70231904D01*
X140384342Y-70231904D02*
X140193866Y-70279523D01*
X140193866Y-70279523D02*
X139955771Y-70279523D01*
X139955771Y-70279523D02*
X139765295Y-70231904D01*
X139765295Y-70231904D02*
X139670057Y-70184285D01*
X139670057Y-70184285D02*
X139622438Y-70136666D01*
X139622438Y-70136666D02*
X139574819Y-70041428D01*
X157583333Y-105909580D02*
X157535714Y-105957200D01*
X157535714Y-105957200D02*
X157392857Y-106004819D01*
X157392857Y-106004819D02*
X157297619Y-106004819D01*
X157297619Y-106004819D02*
X157154762Y-105957200D01*
X157154762Y-105957200D02*
X157059524Y-105861961D01*
X157059524Y-105861961D02*
X157011905Y-105766723D01*
X157011905Y-105766723D02*
X156964286Y-105576247D01*
X156964286Y-105576247D02*
X156964286Y-105433390D01*
X156964286Y-105433390D02*
X157011905Y-105242914D01*
X157011905Y-105242914D02*
X157059524Y-105147676D01*
X157059524Y-105147676D02*
X157154762Y-105052438D01*
X157154762Y-105052438D02*
X157297619Y-105004819D01*
X157297619Y-105004819D02*
X157392857Y-105004819D01*
X157392857Y-105004819D02*
X157535714Y-105052438D01*
X157535714Y-105052438D02*
X157583333Y-105100057D01*
X158535714Y-106004819D02*
X157964286Y-106004819D01*
X158250000Y-106004819D02*
X158250000Y-105004819D01*
X158250000Y-105004819D02*
X158154762Y-105147676D01*
X158154762Y-105147676D02*
X158059524Y-105242914D01*
X158059524Y-105242914D02*
X157964286Y-105290533D01*
X84761905Y-119693866D02*
X85523810Y-119693866D01*
X85142857Y-120074819D02*
X85142857Y-119312914D01*
X85952381Y-119170057D02*
X86000000Y-119122438D01*
X86000000Y-119122438D02*
X86095238Y-119074819D01*
X86095238Y-119074819D02*
X86333333Y-119074819D01*
X86333333Y-119074819D02*
X86428571Y-119122438D01*
X86428571Y-119122438D02*
X86476190Y-119170057D01*
X86476190Y-119170057D02*
X86523809Y-119265295D01*
X86523809Y-119265295D02*
X86523809Y-119360533D01*
X86523809Y-119360533D02*
X86476190Y-119503390D01*
X86476190Y-119503390D02*
X85904762Y-120074819D01*
X85904762Y-120074819D02*
X86523809Y-120074819D01*
X86904762Y-119170057D02*
X86952381Y-119122438D01*
X86952381Y-119122438D02*
X87047619Y-119074819D01*
X87047619Y-119074819D02*
X87285714Y-119074819D01*
X87285714Y-119074819D02*
X87380952Y-119122438D01*
X87380952Y-119122438D02*
X87428571Y-119170057D01*
X87428571Y-119170057D02*
X87476190Y-119265295D01*
X87476190Y-119265295D02*
X87476190Y-119360533D01*
X87476190Y-119360533D02*
X87428571Y-119503390D01*
X87428571Y-119503390D02*
X86857143Y-120074819D01*
X86857143Y-120074819D02*
X87476190Y-120074819D01*
X87761905Y-119074819D02*
X88095238Y-120074819D01*
X88095238Y-120074819D02*
X88428571Y-119074819D01*
X89285714Y-120074819D02*
X88714286Y-120074819D01*
X89000000Y-120074819D02*
X89000000Y-119074819D01*
X89000000Y-119074819D02*
X88904762Y-119217676D01*
X88904762Y-119217676D02*
X88809524Y-119312914D01*
X88809524Y-119312914D02*
X88714286Y-119360533D01*
X147833333Y-113954819D02*
X147500000Y-113478628D01*
X147261905Y-113954819D02*
X147261905Y-112954819D01*
X147261905Y-112954819D02*
X147642857Y-112954819D01*
X147642857Y-112954819D02*
X147738095Y-113002438D01*
X147738095Y-113002438D02*
X147785714Y-113050057D01*
X147785714Y-113050057D02*
X147833333Y-113145295D01*
X147833333Y-113145295D02*
X147833333Y-113288152D01*
X147833333Y-113288152D02*
X147785714Y-113383390D01*
X147785714Y-113383390D02*
X147738095Y-113431009D01*
X147738095Y-113431009D02*
X147642857Y-113478628D01*
X147642857Y-113478628D02*
X147261905Y-113478628D01*
X148166667Y-112954819D02*
X148833333Y-112954819D01*
X148833333Y-112954819D02*
X148404762Y-113954819D01*
X156437142Y-97584819D02*
X156103809Y-97108628D01*
X155865714Y-97584819D02*
X155865714Y-96584819D01*
X155865714Y-96584819D02*
X156246666Y-96584819D01*
X156246666Y-96584819D02*
X156341904Y-96632438D01*
X156341904Y-96632438D02*
X156389523Y-96680057D01*
X156389523Y-96680057D02*
X156437142Y-96775295D01*
X156437142Y-96775295D02*
X156437142Y-96918152D01*
X156437142Y-96918152D02*
X156389523Y-97013390D01*
X156389523Y-97013390D02*
X156341904Y-97061009D01*
X156341904Y-97061009D02*
X156246666Y-97108628D01*
X156246666Y-97108628D02*
X155865714Y-97108628D01*
X156818095Y-96680057D02*
X156865714Y-96632438D01*
X156865714Y-96632438D02*
X156960952Y-96584819D01*
X156960952Y-96584819D02*
X157199047Y-96584819D01*
X157199047Y-96584819D02*
X157294285Y-96632438D01*
X157294285Y-96632438D02*
X157341904Y-96680057D01*
X157341904Y-96680057D02*
X157389523Y-96775295D01*
X157389523Y-96775295D02*
X157389523Y-96870533D01*
X157389523Y-96870533D02*
X157341904Y-97013390D01*
X157341904Y-97013390D02*
X156770476Y-97584819D01*
X156770476Y-97584819D02*
X157389523Y-97584819D01*
X158246666Y-96918152D02*
X158246666Y-97584819D01*
X158008571Y-96537200D02*
X157770476Y-97251485D01*
X157770476Y-97251485D02*
X158389523Y-97251485D01*
X133084819Y-95562857D02*
X132608628Y-95896190D01*
X133084819Y-96134285D02*
X132084819Y-96134285D01*
X132084819Y-96134285D02*
X132084819Y-95753333D01*
X132084819Y-95753333D02*
X132132438Y-95658095D01*
X132132438Y-95658095D02*
X132180057Y-95610476D01*
X132180057Y-95610476D02*
X132275295Y-95562857D01*
X132275295Y-95562857D02*
X132418152Y-95562857D01*
X132418152Y-95562857D02*
X132513390Y-95610476D01*
X132513390Y-95610476D02*
X132561009Y-95658095D01*
X132561009Y-95658095D02*
X132608628Y-95753333D01*
X132608628Y-95753333D02*
X132608628Y-96134285D01*
X133084819Y-94610476D02*
X133084819Y-95181904D01*
X133084819Y-94896190D02*
X132084819Y-94896190D01*
X132084819Y-94896190D02*
X132227676Y-94991428D01*
X132227676Y-94991428D02*
X132322914Y-95086666D01*
X132322914Y-95086666D02*
X132370533Y-95181904D01*
X133084819Y-93658095D02*
X133084819Y-94229523D01*
X133084819Y-93943809D02*
X132084819Y-93943809D01*
X132084819Y-93943809D02*
X132227676Y-94039047D01*
X132227676Y-94039047D02*
X132322914Y-94134285D01*
X132322914Y-94134285D02*
X132370533Y-94229523D01*
%TO.C,R9*%
D11*
X105150000Y-103630000D02*
X111690000Y-103630000D01*
X111690000Y-106370000D01*
X105150000Y-106370000D01*
X105150000Y-103630000D01*
X112460000Y-105000000D02*
X111690000Y-105000000D01*
X104380000Y-105000000D02*
X105150000Y-105000000D01*
%TO.C,D3*%
X128380000Y-97280000D02*
X130620000Y-97280000D01*
X128380000Y-97400000D02*
X130620000Y-97400000D01*
X128380000Y-97520000D02*
X130620000Y-97520000D01*
X129500000Y-93230000D02*
X129500000Y-93880000D01*
X129500000Y-98770000D02*
X129500000Y-98120000D01*
X128380000Y-98120000D02*
X130620000Y-98120000D01*
X130620000Y-93880000D01*
X128380000Y-93880000D01*
X128380000Y-98120000D01*
%TO.C,Q7*%
X150110000Y-86140000D02*
X158330000Y-86140000D01*
X150110000Y-89610000D02*
X150110000Y-86140000D01*
X152620000Y-89610000D02*
X152620000Y-89390000D01*
X155820000Y-89610000D02*
X155820000Y-89390000D01*
X158330000Y-86140000D02*
X158330000Y-89610000D01*
X158330000Y-89610000D02*
X150110000Y-89610000D01*
%TO.C,R2*%
X163000000Y-104230000D02*
X163000000Y-105000000D01*
X163000000Y-112310000D02*
X163000000Y-111540000D01*
X164370000Y-105000000D02*
X161630000Y-105000000D01*
X161630000Y-111540000D01*
X164370000Y-111540000D01*
X164370000Y-105000000D01*
%TO.C,R8*%
X112460000Y-102000000D02*
X111690000Y-102000000D01*
X104380000Y-102000000D02*
X105150000Y-102000000D01*
X111690000Y-103370000D02*
X105150000Y-103370000D01*
X105150000Y-100630000D01*
X111690000Y-100630000D01*
X111690000Y-103370000D01*
%TO.C,R14*%
X89500000Y-81880000D02*
X89500000Y-82650000D01*
X89500000Y-89960000D02*
X89500000Y-89190000D01*
X88130000Y-89190000D02*
X90870000Y-89190000D01*
X90870000Y-82650000D01*
X88130000Y-82650000D01*
X88130000Y-89190000D01*
%TO.C,C6*%
X182260000Y-107280000D02*
X178583000Y-107280000D01*
X182260000Y-107320000D02*
X178593000Y-107320000D01*
X182260000Y-107360000D02*
X178604000Y-107360000D01*
X182260000Y-107400000D02*
X178615000Y-107400000D01*
X182260000Y-107440000D02*
X178627000Y-107440000D01*
X182260000Y-107480000D02*
X178639000Y-107480000D01*
X182260000Y-107520000D02*
X178651000Y-107520000D01*
X182260000Y-107560000D02*
X178663000Y-107560000D01*
X182260000Y-107600000D02*
X178676000Y-107600000D01*
X182260000Y-107640000D02*
X178690000Y-107640000D01*
X182260000Y-107680000D02*
X178703000Y-107680000D01*
X182260000Y-107720000D02*
X178718000Y-107720000D01*
X182260000Y-107760000D02*
X178732000Y-107760000D01*
X182260000Y-107800000D02*
X178747000Y-107800000D01*
X182260000Y-107840000D02*
X178762000Y-107840000D01*
X182260000Y-107880000D02*
X178778000Y-107880000D01*
X182260000Y-107920000D02*
X178794000Y-107920000D01*
X182260000Y-107960000D02*
X178810000Y-107960000D01*
X182260000Y-108000000D02*
X178827000Y-108000000D01*
X182260000Y-108040000D02*
X178844000Y-108040000D01*
X182260000Y-108080000D02*
X178862000Y-108080000D01*
X182260000Y-108120000D02*
X178880000Y-108120000D01*
X182260000Y-108160000D02*
X178898000Y-108160000D01*
X182260000Y-108200000D02*
X178917000Y-108200000D01*
X182260000Y-108240000D02*
X178936000Y-108240000D01*
X182260000Y-108280000D02*
X178956000Y-108280000D01*
X182260000Y-108320000D02*
X178976000Y-108320000D01*
X182260000Y-108360000D02*
X178996000Y-108360000D01*
X182260000Y-108400000D02*
X179017000Y-108400000D01*
X182260000Y-108440000D02*
X179039000Y-108440000D01*
X182260000Y-108480000D02*
X179061000Y-108480000D01*
X182260000Y-108520000D02*
X179083000Y-108520000D01*
X182260000Y-108560000D02*
X179106000Y-108560000D01*
X182260000Y-108600000D02*
X179129000Y-108600000D01*
X182260000Y-108640000D02*
X179153000Y-108640000D01*
X182260000Y-108680000D02*
X179177000Y-108680000D01*
X182260000Y-108720000D02*
X179202000Y-108720000D01*
X182260000Y-108760000D02*
X179228000Y-108760000D01*
X182260000Y-108800000D02*
X179253000Y-108800000D01*
X182260000Y-108840000D02*
X179280000Y-108840000D01*
X182260000Y-108880000D02*
X179307000Y-108880000D01*
X182260000Y-108920000D02*
X179334000Y-108920000D01*
X182260000Y-108960000D02*
X179362000Y-108960000D01*
X182260000Y-109000000D02*
X179391000Y-109000000D01*
X182260000Y-109040000D02*
X179420000Y-109040000D01*
X182260000Y-109080000D02*
X179450000Y-109080000D01*
X182260000Y-109120000D02*
X179480000Y-109120000D01*
X182260000Y-109160000D02*
X179512000Y-109160000D01*
X182260000Y-109200000D02*
X179543000Y-109200000D01*
X182260000Y-109240000D02*
X179576000Y-109240000D01*
X182260000Y-109280000D02*
X179609000Y-109280000D01*
X182260000Y-109320000D02*
X179642000Y-109320000D01*
X182260000Y-109360000D02*
X179677000Y-109360000D01*
X182260000Y-109400000D02*
X179712000Y-109400000D01*
X182260000Y-109440000D02*
X179748000Y-109440000D01*
X182260000Y-109480000D02*
X179784000Y-109480000D01*
X182260000Y-109520000D02*
X179822000Y-109520000D01*
X182260000Y-109560000D02*
X179860000Y-109560000D01*
X182260000Y-109600000D02*
X179899000Y-109600000D01*
X182260000Y-109640000D02*
X179939000Y-109640000D01*
X182260000Y-109680000D02*
X179980000Y-109680000D01*
X182260000Y-109720000D02*
X180022000Y-109720000D01*
X184099000Y-111080000D02*
X182901000Y-111080000D01*
X184362000Y-111040000D02*
X182638000Y-111040000D01*
X184562000Y-111000000D02*
X182438000Y-111000000D01*
X184730000Y-110960000D02*
X182270000Y-110960000D01*
X184877000Y-110920000D02*
X182123000Y-110920000D01*
X185009000Y-110880000D02*
X181991000Y-110880000D01*
X185130000Y-110840000D02*
X181870000Y-110840000D01*
X185242000Y-110800000D02*
X181758000Y-110800000D01*
X185346000Y-110760000D02*
X181654000Y-110760000D01*
X185444000Y-110720000D02*
X181556000Y-110720000D01*
X185537000Y-110680000D02*
X181463000Y-110680000D01*
X185624000Y-110640000D02*
X181376000Y-110640000D01*
X185708000Y-110600000D02*
X181292000Y-110600000D01*
X185788000Y-110560000D02*
X181212000Y-110560000D01*
X185865000Y-110520000D02*
X181135000Y-110520000D01*
X185939000Y-110480000D02*
X181061000Y-110480000D01*
X186010000Y-110440000D02*
X180990000Y-110440000D01*
X186078000Y-110400000D02*
X180922000Y-110400000D01*
X186144000Y-110360000D02*
X180856000Y-110360000D01*
X186208000Y-110320000D02*
X180792000Y-110320000D01*
X186270000Y-110280000D02*
X180730000Y-110280000D01*
X186330000Y-110240000D02*
X180670000Y-110240000D01*
X186375000Y-100520354D02*
X186375000Y-101520354D01*
X186388000Y-110200000D02*
X180612000Y-110200000D01*
X186445000Y-110160000D02*
X180555000Y-110160000D01*
X186500000Y-110120000D02*
X180500000Y-110120000D01*
X186553000Y-110080000D02*
X180447000Y-110080000D01*
X186605000Y-110040000D02*
X180395000Y-110040000D01*
X186656000Y-110000000D02*
X180344000Y-110000000D01*
X186705000Y-109960000D02*
X180295000Y-109960000D01*
X186754000Y-109920000D02*
X180246000Y-109920000D01*
X186801000Y-109880000D02*
X180199000Y-109880000D01*
X186847000Y-109840000D02*
X180153000Y-109840000D01*
X186875000Y-101020354D02*
X185875000Y-101020354D01*
X186891000Y-109800000D02*
X180109000Y-109800000D01*
X186935000Y-109760000D02*
X180065000Y-109760000D01*
X186978000Y-109720000D02*
X184740000Y-109720000D01*
X187020000Y-109680000D02*
X184740000Y-109680000D01*
X187061000Y-109640000D02*
X184740000Y-109640000D01*
X187101000Y-109600000D02*
X184740000Y-109600000D01*
X187140000Y-109560000D02*
X184740000Y-109560000D01*
X187178000Y-109520000D02*
X184740000Y-109520000D01*
X187216000Y-109480000D02*
X184740000Y-109480000D01*
X187252000Y-109440000D02*
X184740000Y-109440000D01*
X187288000Y-109400000D02*
X184740000Y-109400000D01*
X187323000Y-109360000D02*
X184740000Y-109360000D01*
X187358000Y-109320000D02*
X184740000Y-109320000D01*
X187391000Y-109280000D02*
X184740000Y-109280000D01*
X187424000Y-109240000D02*
X184740000Y-109240000D01*
X187457000Y-109200000D02*
X184740000Y-109200000D01*
X187488000Y-109160000D02*
X184740000Y-109160000D01*
X187520000Y-109120000D02*
X184740000Y-109120000D01*
X187550000Y-109080000D02*
X184740000Y-109080000D01*
X187580000Y-109040000D02*
X184740000Y-109040000D01*
X187609000Y-109000000D02*
X184740000Y-109000000D01*
X187638000Y-108960000D02*
X184740000Y-108960000D01*
X187666000Y-108920000D02*
X184740000Y-108920000D01*
X187693000Y-108880000D02*
X184740000Y-108880000D01*
X187720000Y-108840000D02*
X184740000Y-108840000D01*
X187747000Y-108800000D02*
X184740000Y-108800000D01*
X187772000Y-108760000D02*
X184740000Y-108760000D01*
X187798000Y-108720000D02*
X184740000Y-108720000D01*
X187823000Y-108680000D02*
X184740000Y-108680000D01*
X187847000Y-108640000D02*
X184740000Y-108640000D01*
X187871000Y-108600000D02*
X184740000Y-108600000D01*
X187894000Y-108560000D02*
X184740000Y-108560000D01*
X187917000Y-108520000D02*
X184740000Y-108520000D01*
X187939000Y-108480000D02*
X184740000Y-108480000D01*
X187961000Y-108440000D02*
X184740000Y-108440000D01*
X187983000Y-108400000D02*
X184740000Y-108400000D01*
X188004000Y-108360000D02*
X184740000Y-108360000D01*
X188024000Y-108320000D02*
X184740000Y-108320000D01*
X188044000Y-108280000D02*
X184740000Y-108280000D01*
X188064000Y-108240000D02*
X184740000Y-108240000D01*
X188083000Y-108200000D02*
X184740000Y-108200000D01*
X188102000Y-108160000D02*
X184740000Y-108160000D01*
X188120000Y-108120000D02*
X184740000Y-108120000D01*
X188138000Y-108080000D02*
X184740000Y-108080000D01*
X188156000Y-108040000D02*
X184740000Y-108040000D01*
X188173000Y-108000000D02*
X184740000Y-108000000D01*
X188190000Y-107960000D02*
X184740000Y-107960000D01*
X188206000Y-107920000D02*
X184740000Y-107920000D01*
X188222000Y-107880000D02*
X184740000Y-107880000D01*
X188238000Y-107840000D02*
X184740000Y-107840000D01*
X188253000Y-107800000D02*
X184740000Y-107800000D01*
X188268000Y-107760000D02*
X184740000Y-107760000D01*
X188282000Y-107720000D02*
X184740000Y-107720000D01*
X188297000Y-107680000D02*
X184740000Y-107680000D01*
X188310000Y-107640000D02*
X184740000Y-107640000D01*
X188324000Y-107600000D02*
X184740000Y-107600000D01*
X188337000Y-107560000D02*
X184740000Y-107560000D01*
X188349000Y-107520000D02*
X184740000Y-107520000D01*
X188361000Y-107480000D02*
X184740000Y-107480000D01*
X188373000Y-107440000D02*
X184740000Y-107440000D01*
X188385000Y-107400000D02*
X184740000Y-107400000D01*
X188396000Y-107360000D02*
X184740000Y-107360000D01*
X188407000Y-107320000D02*
X184740000Y-107320000D01*
X188417000Y-107280000D02*
X184740000Y-107280000D01*
X188428000Y-107240000D02*
X178572000Y-107240000D01*
X188437000Y-107200000D02*
X178563000Y-107200000D01*
X188447000Y-107160000D02*
X178553000Y-107160000D01*
X188456000Y-107120000D02*
X178544000Y-107120000D01*
X188465000Y-107080000D02*
X178535000Y-107080000D01*
X188473000Y-107040000D02*
X178527000Y-107040000D01*
X188481000Y-107000000D02*
X178519000Y-107000000D01*
X188489000Y-106960000D02*
X178511000Y-106960000D01*
X188497000Y-106920000D02*
X178503000Y-106920000D01*
X188504000Y-106880000D02*
X178496000Y-106880000D01*
X188511000Y-106840000D02*
X178489000Y-106840000D01*
X188517000Y-106800000D02*
X178483000Y-106800000D01*
X188523000Y-106760000D02*
X178477000Y-106760000D01*
X188529000Y-106720000D02*
X178471000Y-106720000D01*
X188535000Y-106680000D02*
X178465000Y-106680000D01*
X188540000Y-106640000D02*
X178460000Y-106640000D01*
X188545000Y-106600000D02*
X178455000Y-106600000D01*
X188549000Y-106560000D02*
X178451000Y-106560000D01*
X188554000Y-106520000D02*
X178446000Y-106520000D01*
X188557000Y-106480000D02*
X178443000Y-106480000D01*
X188561000Y-106440000D02*
X178439000Y-106440000D01*
X188564000Y-106400000D02*
X178436000Y-106400000D01*
X188567000Y-106360000D02*
X178433000Y-106360000D01*
X188570000Y-106320000D02*
X178430000Y-106320000D01*
X188572000Y-106280000D02*
X178428000Y-106280000D01*
X188574000Y-106240000D02*
X178426000Y-106240000D01*
X188576000Y-106200000D02*
X178424000Y-106200000D01*
X188577000Y-106160000D02*
X178423000Y-106160000D01*
X188579000Y-106080000D02*
X178421000Y-106080000D01*
X188579000Y-106120000D02*
X178421000Y-106120000D01*
X188580000Y-106000000D02*
X178420000Y-106000000D01*
X188580000Y-106040000D02*
X178420000Y-106040000D01*
X188620000Y-106000000D02*
G75*
G02*
X178380000Y-106000000I-5120000J0D01*
G01*
X178380000Y-106000000D02*
G75*
G02*
X188620000Y-106000000I5120000J0D01*
G01*
%TO.C,Q12*%
X127530000Y-91150000D02*
X123930000Y-91150000D01*
X125730000Y-95600000D02*
G75*
G02*
X123891522Y-91161522I0J2600000D01*
G01*
X127568478Y-91161522D02*
G75*
G02*
X125730000Y-95600001I-1838478J-1838478D01*
G01*
%TO.C,R13*%
X145000000Y-91380000D02*
X145000000Y-92150000D01*
X145000000Y-99460000D02*
X145000000Y-98690000D01*
X143630000Y-98690000D02*
X146370000Y-98690000D01*
X146370000Y-92150000D01*
X143630000Y-92150000D01*
X143630000Y-98690000D01*
%TO.C,R5*%
X169230000Y-108630000D02*
X175770000Y-108630000D01*
X169230000Y-108960000D02*
X169230000Y-108630000D01*
X169230000Y-111040000D02*
X169230000Y-111370000D01*
X169230000Y-111370000D02*
X175770000Y-111370000D01*
X175770000Y-108630000D02*
X175770000Y-108960000D01*
X175770000Y-111370000D02*
X175770000Y-111040000D01*
%TO.C,SPK-1*%
X140120000Y-119120000D02*
X141500000Y-119120000D01*
X140120000Y-120500000D02*
X140120000Y-119120000D01*
X140120000Y-121770000D02*
X140120000Y-121880000D01*
X140120000Y-121770000D02*
X142880000Y-121770000D01*
X140120000Y-121880000D02*
X142880000Y-121880000D01*
X142880000Y-121770000D02*
X142880000Y-121880000D01*
%TO.C,D2*%
X117920000Y-108000000D02*
X118570000Y-108000000D01*
X121970000Y-109120000D02*
X121970000Y-106880000D01*
X122090000Y-109120000D02*
X122090000Y-106880000D01*
X122210000Y-109120000D02*
X122210000Y-106880000D01*
X123460000Y-108000000D02*
X122810000Y-108000000D01*
X122810000Y-109120000D02*
X118570000Y-109120000D01*
X118570000Y-106880000D01*
X122810000Y-106880000D01*
X122810000Y-109120000D01*
%TO.C,Q1*%
X167150000Y-112430000D02*
X167150000Y-116030000D01*
X167161522Y-112391522D02*
G75*
G02*
X171600001Y-114230000I1838478J-1838478D01*
G01*
X171600000Y-114230000D02*
G75*
G02*
X167161522Y-116068478I-2600000J0D01*
G01*
%TO.C,C3*%
X153735000Y-91080000D02*
X155265000Y-91080000D01*
X155265000Y-92920000D02*
X153735000Y-92920000D01*
%TO.C,R4*%
X133380000Y-111500000D02*
X134150000Y-111500000D01*
X141460000Y-111500000D02*
X140690000Y-111500000D01*
X134150000Y-110130000D02*
X140690000Y-110130000D01*
X140690000Y-112870000D01*
X134150000Y-112870000D01*
X134150000Y-110130000D01*
%TO.C,Q8*%
X89990000Y-76560000D02*
X91090000Y-76560000D01*
X89990000Y-81810000D02*
X89990000Y-76560000D01*
X94110000Y-76560000D02*
X96540000Y-76560000D01*
X96245000Y-76560000D02*
X96245000Y-76780000D01*
X99560000Y-76560000D02*
X101990000Y-76560000D01*
X99855000Y-76560000D02*
X99855000Y-76780000D01*
X105010000Y-76560000D02*
X106110000Y-76560000D01*
X106110000Y-76560000D02*
X106110000Y-81810000D01*
X106110000Y-81810000D02*
X89990000Y-81810000D01*
%TO.C,Q11*%
X173990000Y-77060000D02*
X175090000Y-77060000D01*
X173990000Y-82310000D02*
X173990000Y-77060000D01*
X178110000Y-77060000D02*
X180540000Y-77060000D01*
X180245000Y-77060000D02*
X180245000Y-77280000D01*
X183560000Y-77060000D02*
X185990000Y-77060000D01*
X183855000Y-77060000D02*
X183855000Y-77280000D01*
X189010000Y-77060000D02*
X190110000Y-77060000D01*
X190110000Y-77060000D02*
X190110000Y-82310000D01*
X190110000Y-82310000D02*
X173990000Y-82310000D01*
%TO.C,Q5*%
X144030000Y-102150000D02*
X140430000Y-102150000D01*
X142230000Y-106600000D02*
G75*
G02*
X140391522Y-102161522I0J2600000D01*
G01*
X144068478Y-102161522D02*
G75*
G02*
X142230000Y-106600001I-1838478J-1838478D01*
G01*
%TO.C,C5*%
X100620000Y-115500000D02*
G75*
G02*
X96380000Y-115500000I-2120000J0D01*
G01*
X96380000Y-115500000D02*
G75*
G02*
X100620000Y-115500000I2120000J0D01*
G01*
%TO.C,-22V1*%
X191120000Y-120120000D02*
X192500000Y-120120000D01*
X191120000Y-121500000D02*
X191120000Y-120120000D01*
X191120000Y-122770000D02*
X191120000Y-122880000D01*
X191120000Y-122770000D02*
X193880000Y-122770000D01*
X191120000Y-122880000D02*
X193880000Y-122880000D01*
X193880000Y-122770000D02*
X193880000Y-122880000D01*
%TO.C,JP1*%
X160000000Y-112880000D02*
X160000000Y-113650000D01*
X160000000Y-120960000D02*
X160000000Y-120190000D01*
X158630000Y-120190000D02*
X161370000Y-120190000D01*
X161370000Y-113650000D01*
X158630000Y-113650000D01*
X158630000Y-120190000D01*
%TO.C,D5*%
X85880000Y-86780000D02*
X88120000Y-86780000D01*
X85880000Y-86900000D02*
X88120000Y-86900000D01*
X85880000Y-87020000D02*
X88120000Y-87020000D01*
X87000000Y-82730000D02*
X87000000Y-83380000D01*
X87000000Y-88270000D02*
X87000000Y-87620000D01*
X85880000Y-87620000D02*
X88120000Y-87620000D01*
X88120000Y-83380000D01*
X85880000Y-83380000D01*
X85880000Y-87620000D01*
%TO.C,R27*%
X103460000Y-115500000D02*
X104230000Y-115500000D01*
X111540000Y-115500000D02*
X110770000Y-115500000D01*
X110770000Y-116870000D02*
X104230000Y-116870000D01*
X104230000Y-114130000D01*
X110770000Y-114130000D01*
X110770000Y-116870000D01*
%TO.C,C7*%
X95260000Y-107280000D02*
X91583000Y-107280000D01*
X95260000Y-107320000D02*
X91593000Y-107320000D01*
X95260000Y-107360000D02*
X91604000Y-107360000D01*
X95260000Y-107400000D02*
X91615000Y-107400000D01*
X95260000Y-107440000D02*
X91627000Y-107440000D01*
X95260000Y-107480000D02*
X91639000Y-107480000D01*
X95260000Y-107520000D02*
X91651000Y-107520000D01*
X95260000Y-107560000D02*
X91663000Y-107560000D01*
X95260000Y-107600000D02*
X91676000Y-107600000D01*
X95260000Y-107640000D02*
X91690000Y-107640000D01*
X95260000Y-107680000D02*
X91703000Y-107680000D01*
X95260000Y-107720000D02*
X91718000Y-107720000D01*
X95260000Y-107760000D02*
X91732000Y-107760000D01*
X95260000Y-107800000D02*
X91747000Y-107800000D01*
X95260000Y-107840000D02*
X91762000Y-107840000D01*
X95260000Y-107880000D02*
X91778000Y-107880000D01*
X95260000Y-107920000D02*
X91794000Y-107920000D01*
X95260000Y-107960000D02*
X91810000Y-107960000D01*
X95260000Y-108000000D02*
X91827000Y-108000000D01*
X95260000Y-108040000D02*
X91844000Y-108040000D01*
X95260000Y-108080000D02*
X91862000Y-108080000D01*
X95260000Y-108120000D02*
X91880000Y-108120000D01*
X95260000Y-108160000D02*
X91898000Y-108160000D01*
X95260000Y-108200000D02*
X91917000Y-108200000D01*
X95260000Y-108240000D02*
X91936000Y-108240000D01*
X95260000Y-108280000D02*
X91956000Y-108280000D01*
X95260000Y-108320000D02*
X91976000Y-108320000D01*
X95260000Y-108360000D02*
X91996000Y-108360000D01*
X95260000Y-108400000D02*
X92017000Y-108400000D01*
X95260000Y-108440000D02*
X92039000Y-108440000D01*
X95260000Y-108480000D02*
X92061000Y-108480000D01*
X95260000Y-108520000D02*
X92083000Y-108520000D01*
X95260000Y-108560000D02*
X92106000Y-108560000D01*
X95260000Y-108600000D02*
X92129000Y-108600000D01*
X95260000Y-108640000D02*
X92153000Y-108640000D01*
X95260000Y-108680000D02*
X92177000Y-108680000D01*
X95260000Y-108720000D02*
X92202000Y-108720000D01*
X95260000Y-108760000D02*
X92228000Y-108760000D01*
X95260000Y-108800000D02*
X92253000Y-108800000D01*
X95260000Y-108840000D02*
X92280000Y-108840000D01*
X95260000Y-108880000D02*
X92307000Y-108880000D01*
X95260000Y-108920000D02*
X92334000Y-108920000D01*
X95260000Y-108960000D02*
X92362000Y-108960000D01*
X95260000Y-109000000D02*
X92391000Y-109000000D01*
X95260000Y-109040000D02*
X92420000Y-109040000D01*
X95260000Y-109080000D02*
X92450000Y-109080000D01*
X95260000Y-109120000D02*
X92480000Y-109120000D01*
X95260000Y-109160000D02*
X92512000Y-109160000D01*
X95260000Y-109200000D02*
X92543000Y-109200000D01*
X95260000Y-109240000D02*
X92576000Y-109240000D01*
X95260000Y-109280000D02*
X92609000Y-109280000D01*
X95260000Y-109320000D02*
X92642000Y-109320000D01*
X95260000Y-109360000D02*
X92677000Y-109360000D01*
X95260000Y-109400000D02*
X92712000Y-109400000D01*
X95260000Y-109440000D02*
X92748000Y-109440000D01*
X95260000Y-109480000D02*
X92784000Y-109480000D01*
X95260000Y-109520000D02*
X92822000Y-109520000D01*
X95260000Y-109560000D02*
X92860000Y-109560000D01*
X95260000Y-109600000D02*
X92899000Y-109600000D01*
X95260000Y-109640000D02*
X92939000Y-109640000D01*
X95260000Y-109680000D02*
X92980000Y-109680000D01*
X95260000Y-109720000D02*
X93022000Y-109720000D01*
X97099000Y-111080000D02*
X95901000Y-111080000D01*
X97362000Y-111040000D02*
X95638000Y-111040000D01*
X97562000Y-111000000D02*
X95438000Y-111000000D01*
X97730000Y-110960000D02*
X95270000Y-110960000D01*
X97877000Y-110920000D02*
X95123000Y-110920000D01*
X98009000Y-110880000D02*
X94991000Y-110880000D01*
X98130000Y-110840000D02*
X94870000Y-110840000D01*
X98242000Y-110800000D02*
X94758000Y-110800000D01*
X98346000Y-110760000D02*
X94654000Y-110760000D01*
X98444000Y-110720000D02*
X94556000Y-110720000D01*
X98537000Y-110680000D02*
X94463000Y-110680000D01*
X98624000Y-110640000D02*
X94376000Y-110640000D01*
X98708000Y-110600000D02*
X94292000Y-110600000D01*
X98788000Y-110560000D02*
X94212000Y-110560000D01*
X98865000Y-110520000D02*
X94135000Y-110520000D01*
X98939000Y-110480000D02*
X94061000Y-110480000D01*
X99010000Y-110440000D02*
X93990000Y-110440000D01*
X99078000Y-110400000D02*
X93922000Y-110400000D01*
X99144000Y-110360000D02*
X93856000Y-110360000D01*
X99208000Y-110320000D02*
X93792000Y-110320000D01*
X99270000Y-110280000D02*
X93730000Y-110280000D01*
X99330000Y-110240000D02*
X93670000Y-110240000D01*
X99375000Y-100520354D02*
X99375000Y-101520354D01*
X99388000Y-110200000D02*
X93612000Y-110200000D01*
X99445000Y-110160000D02*
X93555000Y-110160000D01*
X99500000Y-110120000D02*
X93500000Y-110120000D01*
X99553000Y-110080000D02*
X93447000Y-110080000D01*
X99605000Y-110040000D02*
X93395000Y-110040000D01*
X99656000Y-110000000D02*
X93344000Y-110000000D01*
X99705000Y-109960000D02*
X93295000Y-109960000D01*
X99754000Y-109920000D02*
X93246000Y-109920000D01*
X99801000Y-109880000D02*
X93199000Y-109880000D01*
X99847000Y-109840000D02*
X93153000Y-109840000D01*
X99875000Y-101020354D02*
X98875000Y-101020354D01*
X99891000Y-109800000D02*
X93109000Y-109800000D01*
X99935000Y-109760000D02*
X93065000Y-109760000D01*
X99978000Y-109720000D02*
X97740000Y-109720000D01*
X100020000Y-109680000D02*
X97740000Y-109680000D01*
X100061000Y-109640000D02*
X97740000Y-109640000D01*
X100101000Y-109600000D02*
X97740000Y-109600000D01*
X100140000Y-109560000D02*
X97740000Y-109560000D01*
X100178000Y-109520000D02*
X97740000Y-109520000D01*
X100216000Y-109480000D02*
X97740000Y-109480000D01*
X100252000Y-109440000D02*
X97740000Y-109440000D01*
X100288000Y-109400000D02*
X97740000Y-109400000D01*
X100323000Y-109360000D02*
X97740000Y-109360000D01*
X100358000Y-109320000D02*
X97740000Y-109320000D01*
X100391000Y-109280000D02*
X97740000Y-109280000D01*
X100424000Y-109240000D02*
X97740000Y-109240000D01*
X100457000Y-109200000D02*
X97740000Y-109200000D01*
X100488000Y-109160000D02*
X97740000Y-109160000D01*
X100520000Y-109120000D02*
X97740000Y-109120000D01*
X100550000Y-109080000D02*
X97740000Y-109080000D01*
X100580000Y-109040000D02*
X97740000Y-109040000D01*
X100609000Y-109000000D02*
X97740000Y-109000000D01*
X100638000Y-108960000D02*
X97740000Y-108960000D01*
X100666000Y-108920000D02*
X97740000Y-108920000D01*
X100693000Y-108880000D02*
X97740000Y-108880000D01*
X100720000Y-108840000D02*
X97740000Y-108840000D01*
X100747000Y-108800000D02*
X97740000Y-108800000D01*
X100772000Y-108760000D02*
X97740000Y-108760000D01*
X100798000Y-108720000D02*
X97740000Y-108720000D01*
X100823000Y-108680000D02*
X97740000Y-108680000D01*
X100847000Y-108640000D02*
X97740000Y-108640000D01*
X100871000Y-108600000D02*
X97740000Y-108600000D01*
X100894000Y-108560000D02*
X97740000Y-108560000D01*
X100917000Y-108520000D02*
X97740000Y-108520000D01*
X100939000Y-108480000D02*
X97740000Y-108480000D01*
X100961000Y-108440000D02*
X97740000Y-108440000D01*
X100983000Y-108400000D02*
X97740000Y-108400000D01*
X101004000Y-108360000D02*
X97740000Y-108360000D01*
X101024000Y-108320000D02*
X97740000Y-108320000D01*
X101044000Y-108280000D02*
X97740000Y-108280000D01*
X101064000Y-108240000D02*
X97740000Y-108240000D01*
X101083000Y-108200000D02*
X97740000Y-108200000D01*
X101102000Y-108160000D02*
X97740000Y-108160000D01*
X101120000Y-108120000D02*
X97740000Y-108120000D01*
X101138000Y-108080000D02*
X97740000Y-108080000D01*
X101156000Y-108040000D02*
X97740000Y-108040000D01*
X101173000Y-108000000D02*
X97740000Y-108000000D01*
X101190000Y-107960000D02*
X97740000Y-107960000D01*
X101206000Y-107920000D02*
X97740000Y-107920000D01*
X101222000Y-107880000D02*
X97740000Y-107880000D01*
X101238000Y-107840000D02*
X97740000Y-107840000D01*
X101253000Y-107800000D02*
X97740000Y-107800000D01*
X101268000Y-107760000D02*
X97740000Y-107760000D01*
X101282000Y-107720000D02*
X97740000Y-107720000D01*
X101297000Y-107680000D02*
X97740000Y-107680000D01*
X101310000Y-107640000D02*
X97740000Y-107640000D01*
X101324000Y-107600000D02*
X97740000Y-107600000D01*
X101337000Y-107560000D02*
X97740000Y-107560000D01*
X101349000Y-107520000D02*
X97740000Y-107520000D01*
X101361000Y-107480000D02*
X97740000Y-107480000D01*
X101373000Y-107440000D02*
X97740000Y-107440000D01*
X101385000Y-107400000D02*
X97740000Y-107400000D01*
X101396000Y-107360000D02*
X97740000Y-107360000D01*
X101407000Y-107320000D02*
X97740000Y-107320000D01*
X101417000Y-107280000D02*
X97740000Y-107280000D01*
X101428000Y-107240000D02*
X91572000Y-107240000D01*
X101437000Y-107200000D02*
X91563000Y-107200000D01*
X101447000Y-107160000D02*
X91553000Y-107160000D01*
X101456000Y-107120000D02*
X91544000Y-107120000D01*
X101465000Y-107080000D02*
X91535000Y-107080000D01*
X101473000Y-107040000D02*
X91527000Y-107040000D01*
X101481000Y-107000000D02*
X91519000Y-107000000D01*
X101489000Y-106960000D02*
X91511000Y-106960000D01*
X101497000Y-106920000D02*
X91503000Y-106920000D01*
X101504000Y-106880000D02*
X91496000Y-106880000D01*
X101511000Y-106840000D02*
X91489000Y-106840000D01*
X101517000Y-106800000D02*
X91483000Y-106800000D01*
X101523000Y-106760000D02*
X91477000Y-106760000D01*
X101529000Y-106720000D02*
X91471000Y-106720000D01*
X101535000Y-106680000D02*
X91465000Y-106680000D01*
X101540000Y-106640000D02*
X91460000Y-106640000D01*
X101545000Y-106600000D02*
X91455000Y-106600000D01*
X101549000Y-106560000D02*
X91451000Y-106560000D01*
X101554000Y-106520000D02*
X91446000Y-106520000D01*
X101557000Y-106480000D02*
X91443000Y-106480000D01*
X101561000Y-106440000D02*
X91439000Y-106440000D01*
X101564000Y-106400000D02*
X91436000Y-106400000D01*
X101567000Y-106360000D02*
X91433000Y-106360000D01*
X101570000Y-106320000D02*
X91430000Y-106320000D01*
X101572000Y-106280000D02*
X91428000Y-106280000D01*
X101574000Y-106240000D02*
X91426000Y-106240000D01*
X101576000Y-106200000D02*
X91424000Y-106200000D01*
X101577000Y-106160000D02*
X91423000Y-106160000D01*
X101579000Y-106080000D02*
X91421000Y-106080000D01*
X101579000Y-106120000D02*
X91421000Y-106120000D01*
X101580000Y-106000000D02*
X91420000Y-106000000D01*
X101580000Y-106040000D02*
X91420000Y-106040000D01*
X101620000Y-106000000D02*
G75*
G02*
X91380000Y-106000000I-5120000J0D01*
G01*
X91380000Y-106000000D02*
G75*
G02*
X101620000Y-106000000I5120000J0D01*
G01*
%TO.C,D1*%
X105540000Y-108000000D02*
X106190000Y-108000000D01*
X109590000Y-109120000D02*
X109590000Y-106880000D01*
X109710000Y-109120000D02*
X109710000Y-106880000D01*
X109830000Y-109120000D02*
X109830000Y-106880000D01*
X111080000Y-108000000D02*
X110430000Y-108000000D01*
X110430000Y-109120000D02*
X106190000Y-109120000D01*
X106190000Y-106880000D01*
X110430000Y-106880000D01*
X110430000Y-109120000D01*
%TO.C,R21*%
X139880000Y-58410000D02*
X143060000Y-58410000D01*
X139880000Y-83650000D02*
X139880000Y-58410000D01*
X143060000Y-83650000D02*
X139880000Y-83650000D01*
X145940000Y-83650000D02*
X149120000Y-83650000D01*
X149120000Y-58410000D02*
X145940000Y-58410000D01*
X149120000Y-83650000D02*
X149120000Y-58410000D01*
%TO.C,Q4*%
X131970000Y-106850000D02*
X135570000Y-106850000D01*
X131931522Y-106838478D02*
G75*
G02*
X133770000Y-102399999I1838478J1838478D01*
G01*
X133770000Y-102400000D02*
G75*
G02*
X135608478Y-106838478I0J-2600000D01*
G01*
%TO.C,R25*%
X117380000Y-99000000D02*
X118150000Y-99000000D01*
X125460000Y-99000000D02*
X124690000Y-99000000D01*
X118150000Y-97630000D02*
X124690000Y-97630000D01*
X124690000Y-100370000D01*
X118150000Y-100370000D01*
X118150000Y-97630000D01*
%TO.C,SPK+1*%
X131120000Y-114120000D02*
X132500000Y-114120000D01*
X131120000Y-115500000D02*
X131120000Y-114120000D01*
X131120000Y-116770000D02*
X131120000Y-116880000D01*
X131120000Y-116770000D02*
X133880000Y-116770000D01*
X131120000Y-116880000D02*
X133880000Y-116880000D01*
X133880000Y-116770000D02*
X133880000Y-116880000D01*
%TO.C,C4*%
X184620000Y-115000000D02*
G75*
G02*
X180380000Y-115000000I-2120000J0D01*
G01*
X180380000Y-115000000D02*
G75*
G02*
X184620000Y-115000000I2120000J0D01*
G01*
%TO.C,R6*%
X145880000Y-119500000D02*
X146650000Y-119500000D01*
X153960000Y-119500000D02*
X153190000Y-119500000D01*
X146650000Y-118130000D02*
X153190000Y-118130000D01*
X153190000Y-120870000D01*
X146650000Y-120870000D01*
X146650000Y-118130000D01*
%TO.C,R10*%
X132000000Y-90880000D02*
X132000000Y-91650000D01*
X132000000Y-98960000D02*
X132000000Y-98190000D01*
X130630000Y-98190000D02*
X133370000Y-98190000D01*
X133370000Y-91650000D01*
X130630000Y-91650000D01*
X130630000Y-98190000D01*
%TO.C,Q14*%
X121850000Y-116030000D02*
X121850000Y-112430000D01*
X117400000Y-114230000D02*
G75*
G02*
X121838478Y-112391522I2600000J0D01*
G01*
X121838478Y-116068478D02*
G75*
G02*
X117399999Y-114230000I-1838478J1838478D01*
G01*
%TO.C,Q3*%
X168110000Y-102140000D02*
X176330000Y-102140000D01*
X168110000Y-105610000D02*
X168110000Y-102140000D01*
X170620000Y-105610000D02*
X170620000Y-105390000D01*
X173820000Y-105610000D02*
X173820000Y-105390000D01*
X176330000Y-102140000D02*
X176330000Y-105610000D01*
X176330000Y-105610000D02*
X168110000Y-105610000D01*
%TO.C,R22*%
X114880000Y-119000000D02*
X115650000Y-119000000D01*
X122960000Y-119000000D02*
X122190000Y-119000000D01*
X122190000Y-120370000D02*
X115650000Y-120370000D01*
X115650000Y-117630000D01*
X122190000Y-117630000D01*
X122190000Y-120370000D01*
%TO.C,In+1*%
X152120000Y-107620000D02*
X153500000Y-107620000D01*
X152120000Y-109000000D02*
X152120000Y-107620000D01*
X152120000Y-110270000D02*
X152120000Y-110380000D01*
X152120000Y-110270000D02*
X154880000Y-110270000D01*
X152120000Y-110380000D02*
X154880000Y-110380000D01*
X154880000Y-110270000D02*
X154880000Y-110380000D01*
%TO.C,VR1*%
X117625000Y-101395000D02*
X127375000Y-101395000D01*
X117625000Y-106445000D02*
X117625000Y-101395000D01*
X127375000Y-101395000D02*
X127375000Y-106445000D01*
X127375000Y-106445000D02*
X117625000Y-106445000D01*
%TO.C,D4*%
X146880000Y-95970000D02*
X149120000Y-95970000D01*
X146880000Y-96090000D02*
X149120000Y-96090000D01*
X146880000Y-96210000D02*
X149120000Y-96210000D01*
X148000000Y-91920000D02*
X148000000Y-92570000D01*
X148000000Y-97460000D02*
X148000000Y-96810000D01*
X146880000Y-96810000D02*
X149120000Y-96810000D01*
X149120000Y-92570000D01*
X146880000Y-92570000D01*
X146880000Y-96810000D01*
%TO.C,C2*%
X171485000Y-106080000D02*
X173015000Y-106080000D01*
X173015000Y-107920000D02*
X171485000Y-107920000D01*
%TO.C,F1*%
X189530000Y-94650000D02*
X191100000Y-94650000D01*
X189530000Y-99150000D02*
X189530000Y-94650000D01*
X189530000Y-99150000D02*
X191100000Y-99150000D01*
X189530000Y-110550000D02*
X189530000Y-115050000D01*
X189530000Y-110550000D02*
X191100000Y-110550000D01*
X190000000Y-110550000D02*
X190000000Y-99150000D01*
X191100000Y-115050000D02*
X189530000Y-115050000D01*
X193900000Y-115050000D02*
X195470000Y-115050000D01*
X195000000Y-110550000D02*
X195000000Y-99150000D01*
X195470000Y-94650000D02*
X193900000Y-94650000D01*
X195470000Y-99150000D02*
X193900000Y-99150000D01*
X195470000Y-99150000D02*
X195470000Y-94650000D01*
X195470000Y-110550000D02*
X193900000Y-110550000D01*
X195470000Y-115050000D02*
X195470000Y-110550000D01*
%TO.C,R12*%
X141500000Y-91460000D02*
X141500000Y-92230000D01*
X141500000Y-99540000D02*
X141500000Y-98770000D01*
X140130000Y-98770000D02*
X142870000Y-98770000D01*
X142870000Y-92230000D01*
X140130000Y-92230000D01*
X140130000Y-98770000D01*
%TO.C,R3*%
X103380000Y-111500000D02*
X104150000Y-111500000D01*
X111460000Y-111500000D02*
X110690000Y-111500000D01*
X110690000Y-112870000D02*
X104150000Y-112870000D01*
X104150000Y-110130000D01*
X110690000Y-110130000D01*
X110690000Y-112870000D01*
%TO.C,D6*%
X194000000Y-82730000D02*
X194000000Y-83380000D01*
X194000000Y-88270000D02*
X194000000Y-87620000D01*
X195120000Y-83980000D02*
X192880000Y-83980000D01*
X195120000Y-84100000D02*
X192880000Y-84100000D01*
X195120000Y-84220000D02*
X192880000Y-84220000D01*
X195120000Y-83380000D02*
X192880000Y-83380000D01*
X192880000Y-87620000D01*
X195120000Y-87620000D01*
X195120000Y-83380000D01*
%TO.C,R23*%
X145960000Y-116500000D02*
X146730000Y-116500000D01*
X154040000Y-116500000D02*
X153270000Y-116500000D01*
X153270000Y-117870000D02*
X146730000Y-117870000D01*
X146730000Y-115130000D01*
X153270000Y-115130000D01*
X153270000Y-117870000D01*
%TO.C,F2*%
X84030000Y-95800000D02*
X85600000Y-95800000D01*
X84030000Y-100300000D02*
X84030000Y-95800000D01*
X84030000Y-100300000D02*
X85600000Y-100300000D01*
X84030000Y-111700000D02*
X84030000Y-116200000D01*
X84030000Y-111700000D02*
X85600000Y-111700000D01*
X84500000Y-111700000D02*
X84500000Y-100300000D01*
X85600000Y-116200000D02*
X84030000Y-116200000D01*
X88400000Y-116200000D02*
X89970000Y-116200000D01*
X89500000Y-111700000D02*
X89500000Y-100300000D01*
X89970000Y-95800000D02*
X88400000Y-95800000D01*
X89970000Y-100300000D02*
X88400000Y-100300000D01*
X89970000Y-100300000D02*
X89970000Y-95800000D01*
X89970000Y-111700000D02*
X88400000Y-111700000D01*
X89970000Y-116200000D02*
X89970000Y-111700000D01*
%TO.C,Q13*%
X126850000Y-116030000D02*
X126850000Y-112430000D01*
X122400000Y-114230000D02*
G75*
G02*
X126838478Y-112391522I2600000J0D01*
G01*
X126838478Y-116068478D02*
G75*
G02*
X122399999Y-114230000I-1838478J1838478D01*
G01*
%TO.C,R1*%
X166000000Y-104230000D02*
X166000000Y-105000000D01*
X166000000Y-112310000D02*
X166000000Y-111540000D01*
X167370000Y-105000000D02*
X164630000Y-105000000D01*
X164630000Y-111540000D01*
X167370000Y-111540000D01*
X167370000Y-105000000D01*
%TO.C,C8*%
X104985000Y-118080000D02*
X106515000Y-118080000D01*
X106515000Y-119920000D02*
X104985000Y-119920000D01*
%TO.C,In-1*%
X157120000Y-107620000D02*
X158500000Y-107620000D01*
X157120000Y-109000000D02*
X157120000Y-107620000D01*
X157120000Y-110270000D02*
X157120000Y-110380000D01*
X157120000Y-110270000D02*
X159880000Y-110270000D01*
X157120000Y-110380000D02*
X159880000Y-110380000D01*
X159880000Y-110270000D02*
X159880000Y-110380000D01*
%TO.C,Q2*%
X174150000Y-112430000D02*
X174150000Y-116030000D01*
X174161522Y-112391522D02*
G75*
G02*
X178600001Y-114230000I1838478J-1838478D01*
G01*
X178600000Y-114230000D02*
G75*
G02*
X174161522Y-116068478I-2600000J0D01*
G01*
%TO.C,R15*%
X191500000Y-82040000D02*
X191500000Y-82810000D01*
X191500000Y-90120000D02*
X191500000Y-89350000D01*
X192870000Y-82810000D02*
X190130000Y-82810000D01*
X190130000Y-89350000D01*
X192870000Y-89350000D01*
X192870000Y-82810000D01*
%TO.C,Q6*%
X122110000Y-86640000D02*
X130330000Y-86640000D01*
X122110000Y-90110000D02*
X122110000Y-86640000D01*
X124620000Y-90110000D02*
X124620000Y-89890000D01*
X127820000Y-90110000D02*
X127820000Y-89890000D01*
X130330000Y-86640000D02*
X130330000Y-90110000D01*
X130330000Y-90110000D02*
X122110000Y-90110000D01*
%TO.C,R20*%
X129880000Y-58350000D02*
X129880000Y-83590000D01*
X129880000Y-83590000D02*
X133060000Y-83590000D01*
X133060000Y-58350000D02*
X129880000Y-58350000D01*
X135940000Y-58350000D02*
X139120000Y-58350000D01*
X139120000Y-58350000D02*
X139120000Y-83590000D01*
X139120000Y-83590000D02*
X135940000Y-83590000D01*
%TO.C,C1*%
X156985000Y-102580000D02*
X158515000Y-102580000D01*
X158515000Y-104420000D02*
X156985000Y-104420000D01*
%TO.C,+22V1*%
X85620000Y-120620000D02*
X87000000Y-120620000D01*
X85620000Y-122000000D02*
X85620000Y-120620000D01*
X85620000Y-123270000D02*
X85620000Y-123380000D01*
X85620000Y-123270000D02*
X88380000Y-123270000D01*
X85620000Y-123380000D02*
X88380000Y-123380000D01*
X88380000Y-123270000D02*
X88380000Y-123380000D01*
%TO.C,R7*%
X145880000Y-113500000D02*
X146650000Y-113500000D01*
X153960000Y-113500000D02*
X153190000Y-113500000D01*
X153190000Y-114870000D02*
X146650000Y-114870000D01*
X146650000Y-112130000D01*
X153190000Y-112130000D01*
X153190000Y-114870000D01*
%TO.C,R24*%
X153040000Y-99500000D02*
X153810000Y-99500000D01*
X161120000Y-99500000D02*
X160350000Y-99500000D01*
X153810000Y-98130000D02*
X160350000Y-98130000D01*
X160350000Y-100870000D01*
X153810000Y-100870000D01*
X153810000Y-98130000D01*
%TO.C,R11*%
X135000000Y-90880000D02*
X135000000Y-91650000D01*
X135000000Y-98960000D02*
X135000000Y-98190000D01*
X133630000Y-98190000D02*
X136370000Y-98190000D01*
X136370000Y-91650000D01*
X133630000Y-91650000D01*
X133630000Y-98190000D01*
%TD*%
M02*
